<svg width="61" height="62" viewBox="0 0 61 62" xmlns="http://www.w3.org/2000/svg" ><title>uSwitch</title><path d="M57.322 37.867c-.1-2.732 0-36.791 0-36.791h-17.008v35.712c0 1.601.05 3.215-.603 4.727-.301.712-.803 1.423-1.506 1.83l5.799 3.241c.201-.813.603-1.525 1.105-2.021l1.406 1.017c-.628.813-1.142 1.805-1.092 2.872.025.699.414 1.487 1.192 1.487.803 0 1.205-.508 1.607-2.427.502-2.122 1.305-3.241 2.9-3.241 1.029 0 1.958.546 2.473 1.461.603 1.055.64 2.389.402 3.558-.213 1.08-.728 2.084-1.469 2.898l-1.305-1.118c.904-1.017 1.406-1.932 1.305-3.241 0-1.118-.502-1.728-1.305-1.728-.703 0-1.105.407-1.607 2.224-.502 2.122-1.205 3.444-3 3.444-1.506 0-2.498-1.017-2.799-2.529l-3.402 4.232c.603 2.732 1.808 3.546 1.808 3.546h18.816c-2.209-2.021-3.515-11.247-3.715-19.151-.1-2.732.201 7.905 0 0zm-13.808-26.344h4.105c-.439-.318-.841-.699-1.105-1.182-.289-.546-.351-1.182-.251-1.792.176-1.042.916-1.817 1.933-2.071.301-.076.615-.114.929-.114h4.808v1.728h-4.406c-.477 0-.992.089-1.356.432-.326.305-.452.75-.452 1.195 0 .47.163.928.502 1.245.377.356.904.483 1.406.483h4.305v1.83h-10.406v-1.754h-.013zm1.795 19.558h-1.607v-1.83h1.607v1.83zm8.812 5.376l-5.209 1.728 5.209 1.728v1.627l-7.707 2.529v-1.728l5.209-1.627-5.209-1.627v-1.525l5.209-1.627-5.209-1.627v-1.728l7.707 2.529v1.347zm-7.607-5.477v-1.728h7.506v1.728h-7.506zm5.41-4.664h-4.004v1.017h-1.506v-1.017h-2.096v-1.728h2.096v-2.021h1.506v2.021h3.703c.402 0 .791-.165.929-.572.163-.483.038-1.131-.238-1.55h1.506c.301.407.402.915.402 1.627-.1 1.322-.603 2.224-2.297 2.224zm-1.707-4.753c-1.067 0-2.121-.394-2.887-1.169-.803-.826-1.155-1.957-1.117-3.101.025-.572.126-1.144.377-1.665.226-.445.552-.826.929-1.156l1.205 1.118c-.364.369-.728.763-.904 1.271-.163.483-.138 1.029.063 1.487.364.902 1.305 1.398 2.247 1.398.954 0 1.87-.521 2.234-1.436.402-1.004.063-2.224-.828-2.821l1.105-1.118c.904.813 1.506 1.627 1.506 3.139.075 2.326-1.732 4.054-3.929 4.054zm-22.92 17.524l1.406 6.888s-1.004.102-1.406.102c-1.82.102-3.728-.127-5.335-1.093-1.431-.851-2.448-2.224-3.088-3.762-.803-1.906-1.105-4.016-1.23-6.075-.1-1.665-.063-3.33-.063-4.994v-29.178h-16.607v31.986c0 1.741-.025 3.482.063 5.21.113 2.199.377 4.397.891 6.545.439 1.817 1.054 3.596 1.946 5.236.791 1.474 1.808 2.821 3.025 3.94 1.218 1.118 2.636 2.008 4.142 2.656 1.682.724 3.49 1.144 5.297 1.373 2.435.305 4.946.292 7.381-.013 2.347-.292 4.657-.928 6.778-2.008l1.205 6.075 11.51-14.284-15.916-8.604z" fill="#FFFFFF"/></svg>