<svg xmlns="http://www.w3.org/2000/svg"><defs><style>.cls-1{fill:none;}</style><style>.cls-1{fill:none;}</style><style>.cls-1{fill:none;}</style><style>.cls-1{fill:none;}</style><style>.cls-1{fill:none;}</style><style>.cls-1{fill:none;}</style><style>.cls-1{fill:none;}</style><style>.cls-1{fill:none;}</style><style>.cls-1{fill:none;}</style><style>.cls-1{fill:none;}</style><style>.cls-1{fill:none;}</style><style>.cls-1{fill:none;}</style><style>.cls-1{fill:none;}</style><style>.cls-1{fill:none;}</style><style>.cls-1{fill:none;}</style><style>.cls-1{fill:none;}</style><style>.cls-1{fill:none;}</style><style>.cls-1{fill:none;}</style><style>.cls-1{fill:none;}</style><style>.cls-1{fill:none;}</style><style>.cls-1{fill:none;}</style><style>.cls-1{fill:none;}</style><style>.cls-1{fill:#fff;}.cls-2{fill:none;}</style><style>.cls-1{fill:#fff;}.cls-2{fill:none;}</style><style>.cls-1{fill:none;}</style><style>.cls-1{fill:none;}</style><style>.cls-1{fill:none;}</style><style>.cls-1{fill:none;}</style><style>.cls-1{fill:none;}</style><style>.cls-1{fill:none;}</style><style>.cls-1{fill:none;}</style><style>.cls-1{fill:none;}</style><style>.cls-1{fill:none;}</style><style>.cls-1{fill:none;}</style><style>.cls-1{fill:none;}</style><style>.cls-1{fill:none;}</style><style>.cls-1{fill:none;}</style><style>.cls-1{fill:none;}</style><style>.cls-1{fill:none;}</style><style>.cls-1{fill:none;}</style><style>.cls-1{fill:none;}</style><style>.cls-1{fill:none;}</style><style>.cls-1{fill:none;}</style><style>.cls-1{fill:none;}</style><style>.cls-1{fill:none;}</style><style>.cls-1{fill:none;}</style><style>.cls-1{fill:none;}</style><style>.cls-1{fill:none;}</style><style>.cls-1{fill:none;}</style><style>.cls-1{fill:none;}</style><style>.cls-1{fill:none;}</style><style>.cls-1{fill:none;}</style><style>.cls-1{fill:none;}</style><style>.cls-1{fill:none;}</style><style>.cls-1{fill:none;}</style><style>.cls-1{fill:none;}</style><style>.cls-1{fill:none;}</style><style>.cls-1{fill:none;}</style><style>.cls-1{fill:none;}</style><style>.cls-1{fill:none;}</style><style>.cls-1{fill:none;}</style><style>.cls-1{fill:none;}</style><style>.cls-1{fill:none;}</style><style>.cls-1{fill:none;}</style><style>.cls-1{fill:none;}</style><style>.cls-1{fill:none;}</style><style>.cls-1{fill:none;}</style><style>.cls-1{fill:none;}</style><style>.cls-1{fill:none;}</style><style>.cls-1{fill:none;}</style><style>.cls-1{fill:none;}</style><style>.cls-1{fill:none;}</style><style>.cls-1{fill:none;}</style><style>.cls-1{fill:none;}</style><style>.cls-1{fill:none;}</style><style>.cls-1{fill:none;}</style><style>.cls-1{fill:none;}</style><style>.cls-1{fill:none;}</style><style>.cls-1{fill-rule:evenodd;}.cls-2{fill:none;}</style><style>.cls-1{fill-rule:evenodd;}.cls-2{fill:none;}</style><style>.cls-1{fill:none;}</style><style>.cls-1{fill:none;}</style><style>.cls-1{fill:none;}</style><style>.cls-1{fill:none;}</style><style>.cls-1{fill:none;}</style><style>.cls-1{fill:none;}</style><style>.cls-1{fill:none;}</style><style>.cls-1{fill:none;}</style><style>.cls-1{fill:none;}</style><style>.cls-1{fill:none;}</style><style>.cls-1{fill:none;}</style><style>.cls-1{fill:none;}</style><style>.cls-1{fill:none;}</style><style>.cls-1{fill:none;}</style><style>.cls-1{fill:none;}</style><style>.cls-1{fill:none;}</style><style>.cls-1{fill:none;}</style><style>.cls-1{fill:none;}</style><style>.cls-1{fill:none;}</style><style>.cls-1{fill:none;}</style><style>.cls-1{fill:none;}</style><style>.cls-1{fill:none;}</style><style>.cls-1{fill:none;}</style><style>.cls-1{fill:none;}</style><style>.cls-1{fill:none;}</style><style>.cls-1{fill:none;}</style><style>.cls-1{fill:none;}</style><style>.cls-1{fill:none;}</style><style>.cls-1{fill:none;}</style><style>.cls-1{fill:none;}</style><style>.cls-1{fill:none;}</style><style>.cls-1{fill:none;}</style><style>.cls-1{fill:none;}</style><style>.cls-1{fill:none;}</style><style>.cls-1{fill:none;}</style><style>.cls-1{fill:none;}</style><style>.cls-1{fill:none;}</style><style>.cls-1{fill:none;}</style><style>.cls-1{fill:none;}</style><style>.cls-1{fill:none;}</style><style>.cls-1{fill:none;}</style><style>.cls-1{fill:none;}</style><style>.cls-1{fill:none;}</style><style>.cls-1{fill:none;}</style><style>.cls-1{fill:none;}</style><style>.cls-1{fill:none;}</style><style>.cls-1{fill:none;}</style><style>.cls-1{fill:none;}</style><style>.cls-1{fill:none;}</style><style>.cls-1{fill:none;}</style><style>.cls-1{fill:none;}</style><style>.cls-1{fill:none;}</style><style>.cls-1{fill:none;}</style><style>.cls-1{fill:none;}</style><style>.cls-1{fill:none;}</style><style>.cls-1{fill:none;}</style><style>.cls-1{fill:none;}</style><style>.cls-1{fill:none;}</style><style>.cls-1{fill:none;}</style><style>.cls-1{fill:none;}</style><style>.cls-1{fill:none;}</style><style>.cls-1{fill:none;}</style><style>.cls-1{fill:none;}</style><style>.cls-1{fill:none;}</style><style>.cls-1{fill:none;}</style><style>.cls-1{fill:none;}</style><style>.cls-1{fill:none;}</style><style>.cls-1{fill:none;}</style><style>.cls-1{fill:none;}</style><style>.cls-1{fill:none;}</style><style>.cls-1{fill:none;}</style><style>.cls-1{fill:none;}</style><style>.cls-1{fill:none;}</style><style>.cls-1{fill:none;}</style><style>.cls-1{fill:none;}</style><style>.cls-1{fill:none;}</style><style>.cls-1{fill:none;}</style><style>.cls-1{fill:none;}</style><style>.cls-1{fill:none;}</style><style>.cls-1{fill:none;}</style><style>.cls-1{fill:none;}</style><style>.cls-1{fill:none;}</style><style>.cls-1{fill:none;}</style><style>.cls-1{fill:none;}</style><style>.cls-1{fill:none;}</style><style>.cls-1{fill:none;}</style><style>.cls-1{fill:none;}</style><style>.cls-1{fill:none;}</style><style>.cls-1{fill:none;}</style><style>.cls-1{fill:none;}</style><style>.cls-1{fill:none;}</style><style>.cls-1{fill:none;}</style><style>.cls-1{fill:none;}</style><style>.cls-1{fill:none;}</style><style>.cls-1{fill:none;}</style><style>.cls-1{fill:none;}</style><style>.cls-1{fill:none;}</style><style>.cls-1{fill:none;}</style><style>.cls-1{fill:none;}</style><style>.cls-1{fill:none;}</style><style>.cls-1{fill:none;}</style><style>.cls-1{fill:none;}</style><style>.cls-1{fill:none;}</style><style>.cls-1{fill:none;}</style><style>.cls-1{fill:none;}</style><style>.cls-1{fill:none;}</style><style>.cls-1{fill:none;}</style><style>.cls-1{fill:none;}</style><style>.cls-1{fill:none;}</style><style>.cls-1{fill:none;}</style><style>.cls-1{fill:none;}</style></defs><symbol viewBox="0 0 32 32" id="icon-alarm-o"><title>alarm-o</title><rect class="cls-1" width="32" height="32"/><path d="M30,23,27.07,18.9V11.67C27.07,6.23,21.91,2,16,2h0c-5.88,0-11,4.14-11,9.59v7.23L2,23v2h8.17A6,6,0,0,0,22,25H30Zm-14,5a4,4,0,0,1-3.85-3h7.7A4,4,0,0,1,16.05,28ZM4.44,23l2.22-3,.39-.53V11.61c0-4.18,4-7.59,9-7.59s9,3.51,9,7.65v7.88l.38.52L27.58,23Z"/><rect x="9.06" y="11" width="2" height="8.01"/></symbol><symbol viewBox="0 0 32 32" id="icon-alarm"><title>alarm</title><rect class="cls-1" width="32" height="32"/><path d="M27,18.9V11.67C27,6.22,21.89,2,16,2s-11,4.14-11,9.59v7.23L2,22v2H30V22Zm-16,.11h-2V11h2Z"/><path d="M11.14,26a5,5,0,0,0,9.75,0Z"/></symbol><symbol viewBox="0 0 32 32" id="icon-alert-o"><title>alert-o</title><polygon points="15.07 14 17.06 14 18 7.99 14 7.99 15.07 14"/><circle cx="16" cy="18" r="2"/><path d="M30,23,27.07,18.9V11.67C27.07,6.23,21.91,2,16,2h0c-5.88,0-11,4.14-11,9.59v7.23L2,23v2h8.17A6,6,0,0,0,22,25H30Zm-14,5a4,4,0,0,1-3.85-3h7.7A4,4,0,0,1,16.05,28ZM4.44,23l2.22-3,.39-.53V11.61c0-4.18,4-7.59,9-7.59s9,3.51,9,7.65v7.88l.38.52L27.58,23Z"/><rect class="cls-1" width="32" height="32"/></symbol><symbol viewBox="0 0 32 32" id="icon-alert"><title>alert</title><path d="M11.14,26a5,5,0,0,0,9.76,0Z"/><path d="M27.05,18.9V11.66C27.05,6.21,21.9,2,16,2s-11,4.15-11,9.6v7.24L2,22v2H30V22ZM16,20a2,2,0,1,1,2-2A2,2,0,0,1,16,20Zm1.06-6h-2L14,8h4Z"/><rect class="cls-1" width="32" height="32"/></symbol><symbol viewBox="0 0 32 32" id="icon-android-o"><title>android-o</title><rect class="cls-1" width="32" height="32"/><ellipse cx="10.51" cy="18.83" rx="1.51" ry="1.5"/><circle cx="21.5" cy="18.83" r="1.5"/><path d="M2,24.33H30a13.28,13.28,0,0,0-5.93-11l2.41-4.18a1,1,0,1,0-1.73-1l-2.41,4.17A14.45,14.45,0,0,0,16,10.87h0A14.33,14.33,0,0,0,10,12.21l-2.33-4a1,1,0,0,0-1.74,1l2.31,4A13.33,13.33,0,0,0,2,24.33ZM16,12.87a11.89,11.89,0,0,1,11.82,9.46H4.18A11.89,11.89,0,0,1,16,12.87Z"/></symbol><symbol viewBox="0 0 32 32" id="icon-android"><title>android</title><rect class="cls-1" width="32" height="32"/><path d="M24.07,13.35l2.41-4.18a1,1,0,1,0-1.73-1l-2.41,4.17A14.45,14.45,0,0,0,16,10.87h0A14.33,14.33,0,0,0,10,12.21l-2.33-4a1,1,0,0,0-1.74,1l2.31,4A13.33,13.33,0,0,0,2,24.33H30A13.28,13.28,0,0,0,24.07,13.35Zm-13.56,7A1.5,1.5,0,1,1,12,18.83,1.51,1.51,0,0,1,10.51,20.33Zm11,0a1.5,1.5,0,1,1,1.5-1.5A1.5,1.5,0,0,1,21.5,20.33Z"/></symbol><symbol viewBox="0 0 32 32" id="icon-arow-left"><title>arow-left</title><polygon points="28.47 15.1 7.34 15.1 14.72 7.64 13.29 6.23 3.53 16.11 13.3 25.77 14.71 24.35 7.38 17.1 28.47 17.1 28.47 15.1"/><rect class="cls-1" width="32" height="32"/></symbol><symbol viewBox="0 0 32 32" id="icon-arrow-circle-up-o"><title>arrow-circle-up-o</title><path d="M16,2A14,14,0,1,0,30,16,14,14,0,0,0,16,2Zm0,26A12,12,0,1,1,28,16,12,12,0,0,1,16,28Z"/><polygon points="10.32 14.29 11.73 15.71 14.98 12.46 14.98 22.98 16.98 22.98 16.98 12.37 20.32 15.71 21.73 14.29 16.03 8.59 10.32 14.29"/><rect class="cls-1" width="32" height="32"/></symbol><symbol viewBox="0 0 32 32" id="icon-arrow-circle-up"><title>arrow-circle-up</title><path d="M16,2A14,14,0,1,0,30,16,14,14,0,0,0,16,2Zm4.32,13.71L17,12.37V23H15V12.46l-3.25,3.25-1.41-1.42L16,8.59l5.7,5.7Z"/><rect class="cls-1" width="32" height="32"/></symbol><symbol viewBox="0 0 32 32" id="icon-arrow-circle"><title>arrow-circle</title><path d="M15.9.004c-8.837 0-16 7.163-16 16s7.163 16 16 16 16-7.163 16-16-7.163-16-16-16zm10.113 16.41l-8.703 8.703c-.166.166-.575.216-.792.126-.217-.09-.518-.302-.518-.536V20H8.198c-.154 0-.11-.137-.22-.246-.108-.11.022-.333.022-.486V12.74c0-.32-.123-.74.198-.74H16V7.3c0-.234.3-.445.518-.535s.546-.04.712.126l8.743 8.71c.11.11.19.26.19.41 0 .16-.04.3-.15.41z"/></symbol><symbol viewBox="0 0 32 32" id="icon-arrow-down"><title>arrow-down</title><polygon points="24.36 17.29 17 24.64 17 3.53 15 3.53 15 24.64 7.64 17.29 6.23 18.7 16 28.47 25.77 18.7 24.36 17.29"/><rect class="cls-1" width="32" height="32"/></symbol><symbol viewBox="0 0 32 32" id="icon-arrow-right"><title>arrow-right</title><polygon points="18.7 6.23 17.29 7.64 24.56 14.92 3.53 14.92 3.53 16.92 24.72 16.92 17.29 24.36 18.7 25.77 28.47 16 18.7 6.23"/><rect class="cls-1" width="32" height="32"/></symbol><symbol viewBox="0 0 32 32" id="icon-arrow-up"><title>arrow-up</title><polygon points="25.77 13.3 16 3.53 6.23 13.3 7.64 14.71 15 7.36 15 28.47 17 28.47 17 7.36 24.36 14.71 25.77 13.3"/><rect class="cls-1" width="32" height="32"/></symbol><symbol viewBox="0 0 32 32" id="icon-bill-o"><title>bill-o</title><path d="M24.48,4a.22.22,0,0,1,0,.1V25.8l-.56-.45-1.35-1.1-1.27,1.18-2,1.86-2-1.78L16,24.31l-1.34,1.2-2,1.8-2-1.8L9.4,24.39l-1.32,1-.58.46V4.1a.22.22,0,0,1,0-.1h17m.05-2H7.47a2,2,0,0,0-2,2.1V30l3.82-3,3.34,3L16,27l3.34,3,3.34-3.1L26.5,30V4.1a2,2,0,0,0-2-2.1Z"/><path d="M20.5,17.87V20h-9V17.87H12c2,0,2.93-.94,2.93-2a1.53,1.53,0,0,0-.31-.9H11.5V13.6h2.11a3,3,0,0,1-1.33-2.46c0-1.63,1.2-3.14,3.79-3.14S20,9.52,20.14,11.46h-2A2,2,0,0,0,16,9.58c-1.24,0-2,.66-2,1.74,0,.64.3,1.25,1.62,2.28h3.57V15H16.58a5.63,5.63,0,0,1,.2,1.2,1.59,1.59,0,0,1-1.22,1.65Z"/><rect class="cls-1" width="32" height="32"/></symbol><symbol viewBox="0 0 32 32" id="icon-bill"><title>bill</title><path d="M24.53,2H7.47a2,2,0,0,0-2,2.1V30l3.82-3,3.34,3L16,27l3.34,3,3.34-3.1L26.5,30V4.1A2,2,0,0,0,24.53,2Zm-4,18h-9V17.87H12c2,0,2.93-.94,2.93-2a1.53,1.53,0,0,0-.31-.9H11.5V13.6h2.11a3,3,0,0,1-1.33-2.46c0-1.63,1.2-3.14,3.79-3.14S20,9.52,20.14,11.46h-2A2,2,0,0,0,16,9.58c-1.24,0-2,.66-2,1.74,0,.64.3,1.25,1.62,2.28h3.57V15H16.58a5.63,5.63,0,0,1,.2,1.2,1.59,1.59,0,0,1-1.22,1.65H20.5Z"/><rect class="cls-1" width="32" height="32"/></symbol><symbol viewBox="0 0 32 32" id="icon-book-o"><title>book-o</title><path d="M8.83,2.38a4,4,0,0,0-4,4v20a4.23,4.23,0,0,0,0,.5h0a3.45,3.45,0,0,0,3.45,3.45h0a4.23,4.23,0,0,0,.5.05h17v-28Zm0,2h15v19H8.33a3.29,3.29,0,0,0-1.5.36V6.38A2,2,0,0,1,8.83,4.38ZM6.88,26.82a1.45,1.45,0,0,1,1.45-1.44H23.69a.09.09,0,0,1,.09.09v2.77a.09.09,0,0,1-.09.09H8.39A2,2,0,0,1,6.88,26.82Z"/><rect x="9.83" y="7.38" width="11" height="6"/><rect class="cls-1" width="32" height="32"/></symbol><symbol viewBox="0 0 32 32" id="icon-book"><title>book</title><path d="M9.53,2a4,4,0,0,0-4,4V26a4,4,0,0,0,4,4H26.47V2Zm1,5h11v6h-11Zm14,21H9.91A2.45,2.45,0,0,1,7.46,25.5v-.05A2.45,2.45,0,0,1,9.91,23H24.46Z"/><rect class="cls-1" width="32" height="32"/></symbol><symbol viewBox="0 0 32 32" id="icon-bookmark-o"><title>bookmark-o</title><path d="M22,4a2,2,0,0,1,2,2V25.73l-6.72-5.59L16,19.07l-1.28,1.07L8,25.73V6a2,2,0,0,1,2-2H22m0-2H10A4,4,0,0,0,6,6V30l10-8.32L26,30V6a4,4,0,0,0-4-4Z"/><rect class="cls-1" width="32" height="32"/></symbol><symbol viewBox="0 0 32 32" id="icon-bookmark"><title>bookmark</title><path d="M26,30,16,21.68,6,30V6a4,4,0,0,1,4-4H22a4,4,0,0,1,4,4Z"/><rect class="cls-1" width="32" height="32"/></symbol><symbol viewBox="0 0 32 32" id="icon-breadcrumb"><title>breadcrumb</title><path d="M21.307 15.32L13.114.714c-.377-.67-1.222-.904-1.89-.53-.667.374-.905 1.22-.53 1.888L18.508 16l-7.745 13.94c-.372.67-.13 1.515.54 1.887.213.118.444.175.672.175.487 0 .96-.258 1.214-.714l8.12-14.616c.23-.422.23-.933-.01-1.353z"/></symbol><symbol viewBox="0 0 32 32" id="icon-calculator-o"><title>calculator-o</title><path d="M24.5,4V28H7.5V4h17m2-2H5.5V30h21V2Z"/><rect x="9.5" y="6" width="13" height="8"/><rect x="9.5" y="17" width="3" height="3"/><rect x="14.5" y="17" width="3" height="3"/><rect x="19.5" y="17" width="3" height="3"/><rect x="9.5" y="22" width="3" height="3"/><rect x="14.5" y="22" width="3" height="3"/><rect x="19.5" y="22" width="3" height="3"/><rect class="cls-1" width="32" height="32"/></symbol><symbol viewBox="0 0 32 32" id="icon-calculator"><title>calculator</title><path d="M5.5,2V30h21V2Zm7,24h-3V23h3Zm0-5h-3V18h3Zm5,5h-3V23h3Zm0-5h-3V18h3Zm5,5h-3V23h3Zm0-5h-3V18h3Zm0-7H9.5V6h13Z"/><rect class="cls-1" width="32" height="32"/></symbol><symbol viewBox="0 0 32 32" id="icon-calendar-o"><title>calendar-o</title><rect class="cls-1" width="32" height="32"/><path d="M25,5V2H23V5H9V2H7V5H2V30H30V5ZM4,7H28v3H4ZM4,28V12H28V28Z"/><rect x="6" y="20.96" width="7" height="5"/></symbol><symbol viewBox="0 0 32 32" id="icon-calendar"><title>calendar</title><rect class="cls-1" width="32" height="32"/><rect x="2" y="4.96" width="28" height="5"/><path d="M2,12V30H30V12ZM13,26H6V21h7Z"/><rect x="7" y="2.04" width="2" height="4.19"/><rect x="23" y="2.04" width="2" height="4.19"/></symbol><symbol viewBox="0 0 32 32" id="icon-call-wifi-o"><title>call-wifi-o</title><path d="M17,3.87l0,24H4.42l0-24H17m2-2-16.6,0,0,28H19l0-28Z"/><rect x="8.7" y="23.64" width="4.18" height="2.01"/><rect class="cls-1" x="12.42" y="0.86" width="9" height="16"/><rect class="cls-2" width="32" height="32"/><path d="M26.65,13.57a11.67,11.67,0,0,0-3.3-8.31,11.51,11.51,0,0,0-8.17-3.52l0,1.67a9.86,9.86,0,0,1,7,3A10,10,0,0,1,25,13.55Z"/><ellipse cx="15.8" cy="12.53" rx="1.84" ry="1.85" transform="translate(-1.23 1.73) rotate(-6.03)"/><path d="M22.51,13.52a7.52,7.52,0,0,0-2.13-5.34,7.43,7.43,0,0,0-5.25-2.27l0,1.68A5.75,5.75,0,0,1,19.2,9.34a5.89,5.89,0,0,1,1.64,4.16Z"/></symbol><symbol viewBox="0 0 32 32" id="icon-call-wifi"><title>call-wifi</title><path d="M17.72,3.87l0,24H4.82l0-24H17.72m2-2L2.8,1.88l0,28H19.74l0-28Z"/><rect x="3.81" y="23.86" width="13.93" height="4"/><rect class="cls-1" x="8.79" y="25.86" width="4.98" height="2"/><rect class="cls-1" x="11.74" y="0.86" width="10" height="17"/><rect class="cls-2" width="32" height="32"/><path d="M26.65,13.57a11.67,11.67,0,0,0-3.3-8.31,11.51,11.51,0,0,0-8.17-3.52l0,1.67a9.86,9.86,0,0,1,7,3A10,10,0,0,1,25,13.55Z"/><ellipse cx="15.8" cy="12.53" rx="1.84" ry="1.85" transform="translate(-1.23 1.73) rotate(-6.03)"/><path d="M22.51,13.52a7.52,7.52,0,0,0-2.13-5.34,7.43,7.43,0,0,0-5.25-2.27l0,1.68A5.75,5.75,0,0,1,19.2,9.34a5.89,5.89,0,0,1,1.64,4.16Z"/></symbol><symbol viewBox="0 0 32 32" id="icon-camera-o"><title>camera-o</title><path d="M16,14.5A2.5,2.5,0,1,1,13.5,17,2.5,2.5,0,0,1,16,14.5m0-2A4.5,4.5,0,1,0,20.5,17,4.49,4.49,0,0,0,16,12.5Z"/><path d="M18.8,6.5l1.07,2.88.48,1.3H28V25.5H4V10.68h7.65l.48-1.3L13.2,6.5h5.6m1.39-2H11.81L10.26,8.68H2V27.5H30V8.68H21.74L20.19,4.5Z"/><rect class="cls-1" width="32" height="32"/></symbol><symbol viewBox="0 0 32 32" id="icon-camera"><title>camera</title><path d="M21.74,8.68,20.19,4.5H11.81L10.26,8.68H2V27.5H30V8.68ZM16,21.5A4.5,4.5,0,1,1,20.5,17,4.49,4.49,0,0,1,16,21.5Z"/><rect class="cls-1" width="32" height="32"/></symbol><symbol viewBox="0 0 32 32" id="icon-car-o"><title>car-o</title><rect class="cls-1" width="32" height="32"/><path d="M28,15h2V13H27.75L24.47,4H7.53L4.24,13H2v2H4v7.44H4V28H8V24H24v4h4V24h0ZM6,14,8.93,6H23.07L26,14v8H6Z"/><rect x="8" y="16.98" width="5" height="2"/><rect x="19" y="16.98" width="5" height="2"/></symbol><symbol viewBox="0 0 32 32" id="icon-car"><title>car</title><rect class="cls-1" width="32" height="32"/><path d="M30,15V13H28L24,4H8L4,13H2v2H4V28H8V24H24v4h4V15ZM10,6H22l3,7H7Zm3,14H8V18h5Zm6-2h5v2H19Z"/></symbol><symbol viewBox="0 0 32 32" id="icon-cart-o"><title>cart-o</title><path d="M13.24,25.08a2.45,2.45,0,1,0,2.54,2.45A2.5,2.5,0,0,0,13.24,25.08Z"/><ellipse cx="24.83" cy="27.53" rx="2.54" ry="2.45"/><path d="M11.48,19H23.87a4,4,0,0,0,3.88-3l2.25-9H9.38L8.53,2H2v2.1H6.54L9.66,21.25A2.16,2.16,0,0,0,11.79,23L28,23.07V20.89H11.81Zm16-10.06-1.63,6.54A2,2,0,0,1,23.87,17H11.25L9.8,8.92Z"/><rect class="cls-1" width="32" height="32"/></symbol><symbol viewBox="0 0 32 32" id="icon-cart"><title>cart</title><ellipse cx="13.24" cy="27.53" rx="2.54" ry="2.45"/><ellipse cx="24.83" cy="27.53" rx="2.54" ry="2.45"/><path d="M11.48,19H23.87a4,4,0,0,0,3.88-3l2.25-9H9.38L8.53,2H2v2.1H6.54L9.66,21.25A2.16,2.16,0,0,0,11.79,23L28,23.07V20.89H11.81Z"/><rect class="cls-1" width="32" height="32"/></symbol><symbol viewBox="0 0 32 32" id="icon-checkbox-tick"><title>checkbox-tick</title><path d="M31.076 2.204c-9.734 5.965-16.798 13.492-19.972 17.27l-7.772-6.088L-.1 16.152l13.43 13.652c2.31-5.918 9.632-17.483 18.57-25.7l-.824-1.9z"/></symbol><symbol viewBox="0 0 32 32" id="icon-chevron-down-o"><title>chevron-down-o</title><path d="M16,2A14,14,0,1,0,30,16,14,14,0,0,0,16,2Zm0,26A12,12,0,1,1,28,16,12,12,0,0,1,16,28Z"/><polygon points="16 17.59 11.71 13.29 10.29 14.71 16 20.41 21.71 14.71 20.29 13.29 16 17.59"/><rect class="cls-1" width="32" height="32"/></symbol><symbol viewBox="0 0 32 32" id="icon-chevron-down"><title>chevron-down</title><path d="M16,2A14,14,0,1,0,30,16,14,14,0,0,0,16,2Zm0,18.41-5.71-5.7,1.42-1.42L16,17.59l4.29-4.3,1.42,1.42Z"/><rect class="cls-1" width="32" height="32"/></symbol><symbol viewBox="0 0 32 32" id="icon-chevron-down_1"><title>chevron-down_1</title><polygon points="16 22.56 4.29 10.85 5.71 9.44 16 19.73 26.29 9.44 27.71 10.85 16 22.56"/><rect class="cls-1" width="32" height="32"/></symbol><symbol viewBox="0 0 32 32" id="icon-chevron-left"><title>chevron-left</title><polygon points="21.15 27.71 9.44 16 21.15 4.29 22.56 5.71 12.27 16 22.56 26.29 21.15 27.71"/><rect class="cls-1" width="32" height="32"/></symbol><symbol viewBox="0 0 32 32" id="icon-chevron-right"><title>chevron-right</title><polygon points="10.85 27.71 9.44 26.29 19.73 16 9.44 5.71 10.85 4.29 22.56 16 10.85 27.71"/><rect class="cls-1" width="32" height="32"/></symbol><symbol viewBox="0 0 32 32" id="icon-chevron-up-o"><title>chevron-up-o</title><path d="M16,2A14,14,0,1,0,30,16,14,14,0,0,0,16,2Zm0,26A12,12,0,1,1,28,16,12,12,0,0,1,16,28Z"/><polygon points="10.29 17.29 11.71 18.71 16 14.41 20.29 18.71 21.71 17.29 16 11.59 10.29 17.29"/><rect class="cls-1" width="32" height="32"/></symbol><symbol viewBox="0 0 32 32" id="icon-chevron-up"><title>chevron-up</title><path d="M16,2A14,14,0,1,0,30,16,14,14,0,0,0,16,2Zm4.29,16.71L16,14.41l-4.29,4.3-1.42-1.42L16,11.59l5.71,5.7Z"/><rect class="cls-1" width="32" height="32"/></symbol><symbol viewBox="0 0 32 32" id="icon-chevron-up_1"><title>chevron-up_1</title><polygon points="26.29 21.74 16 11.44 5.71 21.74 4.29 20.32 16 8.62 27.71 20.32 26.29 21.74"/><rect class="cls-1" width="32" height="32"/></symbol><symbol viewBox="0 0 32 32" id="icon-clock-o"><title>clock-o</title><rect class="cls-1" width="32" height="32"/><path d="M16,2A14,14,0,1,0,30,16,14,14,0,0,0,16,2Zm0,26A12,12,0,1,1,28,16,12,12,0,0,1,16,28Z"/><polygon points="17 8 15 8 15 17 15 18.1 15 19 24 19 24 17 17 17 17 8"/></symbol><symbol viewBox="0 0 32 32" id="icon-clock"><title>clock</title><path d="M16,2A14,14,0,1,0,30,16,14,14,0,0,0,16,2Zm8,17H15V8h2v9h7Z"/><rect class="cls-1" width="32" height="32"/></symbol><symbol viewBox="0 0 32 32" id="icon-close-o"><title>close-o</title><path d="M16,2A14,14,0,1,0,30,16,14,14,0,0,0,16,2Zm0,26A12,12,0,1,1,28,16,12,12,0,0,1,16,28Z"/><polygon points="21.17 9.47 16 14.63 11.05 9.68 9.63 11.09 14.59 16.05 9.97 20.67 11.38 22.08 16 17.46 20.83 22.29 22.25 20.88 17.42 16.05 22.58 10.88 21.17 9.47"/><rect class="cls-1" width="32" height="32"/></symbol><symbol viewBox="0 0 32 32" id="icon-close"><title>close</title><path d="M16,2A14,14,0,1,0,30,16,14,14,0,0,0,16,2Zm6.25,18.88-1.42,1.41L16,17.46l-4.62,4.62L10,20.67l4.62-4.62-5-5,1.42-1.41,4.95,5,5.17-5.16,1.41,1.41-5.16,5.17Z"/><rect class="cls-1" width="32" height="32"/></symbol><symbol viewBox="0 0 32 32" id="icon-cog-o"><title>cog-o</title><path d="M26,19.85a.94.94,0,0,1,.76-.63l3.22-.4V13.18l-3.22-.4a.94.94,0,0,1-.76-.63c-.07-.19-.15-.39-.24-.58a1,1,0,0,1,.07-1l1.85-2.5L23.91,4.3l-2.5,1.85a1,1,0,0,1-.54.17,1,1,0,0,1-.44-.1c-.19-.09-.39-.17-.58-.24a.94.94,0,0,1-.63-.76L18.82,2H13.18l-.4,3.23a1,1,0,0,1-.63.75q-.28.1-.57.24a1.21,1.21,0,0,1-.44.1.85.85,0,0,1-.53-.18L8,4.2,4.2,8l1.94,2.61a1,1,0,0,1,.08,1,5.89,5.89,0,0,0-.24.58,1,1,0,0,1-.75.62L2,13.18v5.64l3.23.4a1,1,0,0,1,.75.63q.1.28.24.57a1,1,0,0,1-.08,1L4.2,24,8,27.8l2.61-1.94a.85.85,0,0,1,.53-.18,1.21,1.21,0,0,1,.44.1,5.89,5.89,0,0,0,.58.24,1,1,0,0,1,.62.75l.4,3.23h5.64l.4-3.22a.94.94,0,0,1,.63-.76c.19-.07.39-.15.58-.24a1,1,0,0,1,.44-.1,1,1,0,0,1,.54.17l2.5,1.85,3.79-3.79-1.85-2.5a1,1,0,0,1-.07-1C25.87,20.24,26,20,26,19.85Zm-1.87-.72c-.06.16-.12.32-.19.47a3,3,0,0,0,.29,3l.82,1.11-1.36,1.36-1.12-.83a2.94,2.94,0,0,0-3-.28l-.48.19a3,3,0,0,0-1.9,2.38L17.05,28H15l-.18-1.47a2.94,2.94,0,0,0-1.9-2.37L12.4,24a3.08,3.08,0,0,0-1.26-.28,2.92,2.92,0,0,0-1.73.57l-1.22.91L6.84,23.81l.91-1.22a3,3,0,0,0,.29-3l-.2-.47a2.94,2.94,0,0,0-2.37-1.9L4,17.05V15l1.47-.18a2.94,2.94,0,0,0,2.37-1.9L8,12.4a3,3,0,0,0-.29-3L6.84,8.19,8.19,6.84l1.22.91a2.89,2.89,0,0,0,1.73.57A3.08,3.08,0,0,0,12.4,8l.47-.19a3,3,0,0,0,1.9-2.38L15,4h2.1l.18,1.47a3,3,0,0,0,1.9,2.37l.47.2a3,3,0,0,0,1.27.28,2.86,2.86,0,0,0,1.72-.57l1.12-.82,1.36,1.36L24.25,9.4a3,3,0,0,0-.29,3c.07.15.13.31.19.47a3,3,0,0,0,2.38,1.9L28,15v2.1l-1.47.18A3,3,0,0,0,24.15,19.13Z"/><path d="M16,12a4,4,0,1,0,4,4A4,4,0,0,0,16,12Zm0,6a2,2,0,1,1,2-2A2,2,0,0,1,16,18Z"/><rect class="cls-1" width="32" height="32"/></symbol><symbol viewBox="0 0 32 32" id="icon-cog"><title>cog</title><path d="M26,19.85a.94.94,0,0,1,.75-.63l3.21-.4V13.18l-3.21-.4a.94.94,0,0,1-.75-.63c-.08-.19-.16-.39-.25-.58a1,1,0,0,1,.08-1l1.84-2.5L23.89,4.3l-2.5,1.85a.93.93,0,0,1-1,.07c-.19-.09-.39-.17-.58-.24a.94.94,0,0,1-.63-.76L18.81,2H13.19l-.4,3.23a1,1,0,0,1-.63.75q-.29.1-.57.24a1,1,0,0,1-1-.08L8,4.2,4.23,8l1.94,2.61a.93.93,0,0,1,.07,1L6,12.16a1,1,0,0,1-.75.62L2,13.18v5.64l3.21.4a.94.94,0,0,1,.75.63l.24.57a.93.93,0,0,1-.07,1L4.23,24,8,27.8l2.6-1.94a1,1,0,0,1,1-.08,5.89,5.89,0,0,0,.58.24,1,1,0,0,1,.62.75l.4,3.23h5.62l.4-3.22a.94.94,0,0,1,.63-.76c.19-.07.39-.15.58-.24a1,1,0,0,1,1,.07l2.5,1.85,3.78-3.79-1.84-2.5a1,1,0,0,1-.08-1C25.84,20.24,25.92,20,26,19.85ZM16,20a4,4,0,1,1,4-4A4,4,0,0,1,16,20Z"/><rect class="cls-1" width="32" height="32"/></symbol><symbol viewBox="0 0 32 32" id="icon-controller-o"><title>controller-o</title><path d="M25.8,8.5H18.1v-4H14v4H6.2A4.13,4.13,0,0,0,2,12.57V25.46a2.07,2.07,0,0,0,2.1,2H6.93a2,2,0,0,0,1.93-1.44l1.09-4H21.56l1.62,4A2,2,0,0,0,25.1,27.5h2.8a2.07,2.07,0,0,0,2.1-2V12.57A4.13,4.13,0,0,0,25.8,8.5Zm2.1,17-2.79,0a1.55,1.55,0,0,0-.08-.23l-1.62-4a2,2,0,0,0-1.85-1.25H10A2,2,0,0,0,8,21.54l-1.09,4H4.1a.13.13,0,0,1-.1,0H4V12.57A2.14,2.14,0,0,1,6.2,10.5H25.8A2.14,2.14,0,0,1,28,12.57V25.46S28,25.5,27.9,25.5Z"/><polygon points="12 14.5 10 14.5 10 12.5 8 12.5 8 14.5 6 14.5 6 16.5 8 16.5 8 18.5 10 18.5 10 16.5 12 16.5 12 14.5"/><circle cx="20.5" cy="14" r="1.5"/><circle cx="24.5" cy="16" r="1.5"/><rect class="cls-1" width="32" height="32"/></symbol><symbol viewBox="0 0 32 32" id="icon-controller"><title>controller</title><path d="M25.8,8.5H18.1v-4H14v4H6.2A4.13,4.13,0,0,0,2,12.57V25.46a2.07,2.07,0,0,0,2.1,2H6.43a2,2,0,0,0,1.93-1.44l1.09-4H21.56l1.62,4A2,2,0,0,0,25.1,27.5h2.8a2.07,2.07,0,0,0,2.1-2V12.57A4.13,4.13,0,0,0,25.8,8.5ZM12,16.5H10v2H8v-2H6v-2H8v-2h2v2h2Zm8.5-1A1.5,1.5,0,1,1,22,14,1.5,1.5,0,0,1,20.5,15.5Zm4,2A1.5,1.5,0,1,1,26,16,1.5,1.5,0,0,1,24.5,17.5Z"/><rect class="cls-1" width="32" height="32"/></symbol><symbol viewBox="0 0 32 32" id="icon-coverage"><title>coverage</title><rect class="cls-1" width="32" height="32"/><path d="M25.9,25.9a14,14,0,0,0,0-19.8L24.48,7.52a12,12,0,0,1,0,17Z"/><path d="M7.52,24.48a12,12,0,0,1,0-17L6.1,6.1a14,14,0,0,0,0,19.8Z"/><ellipse cx="16" cy="16" rx="3" ry="3" transform="translate(-0.05 0.05) rotate(-0.19)"/><path d="M22.36,22.36a9,9,0,0,0,0-12.72L21,11.05A7,7,0,0,1,21,21Z"/><path d="M11.05,21a7,7,0,0,1,0-9.9L9.64,9.64a9,9,0,0,0,0,12.72Z"/></symbol><symbol viewBox="0 0 32 32" id="icon-credit-card-o"><title>credit-card-o</title><path d="M2,6.5v19H30V6.5Zm26,17H4v-9H28ZM4,10.5v-2H28v2Z"/><rect x="6" y="19.5" width="5" height="2"/><rect class="cls-1" width="32" height="32"/></symbol><symbol viewBox="0 0 32 32" id="icon-credit-card"><title>credit-card</title><rect x="2" y="6.5" width="28" height="4"/><path d="M2,14.5v11H30v-11Zm9,7H6v-2h5Z"/><rect class="cls-1" width="32" height="32"/></symbol><symbol viewBox="0 0 32 32" id="icon-cross"><title>cross</title><polygon points="28.72 4.83 27.3 3.41 15.78 14.93 4.7 3.85 3.28 5.26 14.37 16.35 3.98 26.74 5.39 28.16 15.78 17.76 26.61 28.59 28.02 27.17 17.2 16.35 28.72 4.83"/><rect class="cls-1" width="32" height="32"/></symbol><symbol viewBox="0 0 32 32" id="icon-dashcam"><title>dashcam</title><g transform="translate(0 5)"><circle cx="16" cy="9" r="5"/><path d="M11.506 18H7.992C3.578 18 0 14.422 0 10V8c0-4.418 3.578-8 7.992-8h16.016C28.422 0 32 3.578 32 8v2c0 4.418-3.578 8-7.992 8h-3.514C21.43 19.046 22 20.42 22 21.927H10c0-1.506.57-2.88 1.506-3.927zM16 16c3.866 0 7-3.134 7-7s-3.134-7-7-7-7 3.134-7 7 3.134 7 7 7z"/></g></symbol><symbol viewBox="0 0 32 32" id="icon-download-o"><title>download-o</title><path d="M24.42,9,24,9a7.92,7.92,0,0,0-8-7A7.92,7.92,0,0,0,8,9L7.58,9A5.54,5.54,0,0,0,2,14.42a5.53,5.53,0,0,0,5.61,5.44H24.43A5.53,5.53,0,0,0,30,14.42,5.54,5.54,0,0,0,24.42,9Zm0,8.89H7.58A3.54,3.54,0,0,1,4,14.42,3.54,3.54,0,0,1,7.58,11l.29,0,2,.15.2-2A5.91,5.91,0,0,1,16,4a5.91,5.91,0,0,1,6,5.22l.2,2L24.13,11l.29,0A3.54,3.54,0,0,1,28,14.42,3.54,3.54,0,0,1,24.43,17.86Z"/><polygon points="17.06 26.64 17.06 21.95 15.06 21.95 15.06 26.54 11.51 23.57 10.22 25.1 16.12 30.03 22.01 25.1 20.73 23.57 17.06 26.64"/><rect class="cls-1" width="32" height="32"/></symbol><symbol viewBox="0 0 32 32" id="icon-download"><title>download</title><path d="M30,14.42A5.54,5.54,0,0,0,24.42,9L24,9a7.92,7.92,0,0,0-8-7A7.92,7.92,0,0,0,8,9L7.58,9A5.54,5.54,0,0,0,2,14.42a5.53,5.53,0,0,0,5.61,5.44H24.43A5.53,5.53,0,0,0,30,14.42Z"/><polygon points="20.73 23.57 17.06 26.64 17.06 21.95 15.06 21.95 15.06 26.54 11.51 23.57 10.22 25.1 16.12 30.03 22.01 25.1 20.73 23.57"/><rect class="cls-1" width="32" height="32"/></symbol><symbol viewBox="0 0 32 32" id="icon-dual-fuel-o"><title>dual-fuel-o</title><path d="M20.49,4A7.53,7.53,0,0,1,28,10.55a7.28,7.28,0,0,1-2,5.89l-.31.33A8.07,8.07,0,0,0,23.09,21H17.75a9.58,9.58,0,0,0-2.67-4.49,7.32,7.32,0,0,1-2-6,7.41,7.41,0,0,1,6.28-6.33A6,6,0,0,1,20.29,4h.2m0-2h-.25a10,10,0,0,0-1.2.1,9.45,9.45,0,0,0-8,8.06,9.28,9.28,0,0,0,2.56,7.69A7.34,7.34,0,0,1,16,23h8.81c.14-2.84,1-3.49,2.56-5.15a9.28,9.28,0,0,0,2.53-7.5A9.53,9.53,0,0,0,20.49,2Z"/><polygon points="20 17.98 20 13.98 17 13.98 21 7.98 21 12.98 24 12.98 20 17.98"/><polygon points="16 27.98 17.5 27.98 18.25 29.98 22.75 29.97 23.5 27.98 25 27.98 25 24.98 16 24.98 16 27.98"/><path d="M7.49,15.36a11.06,11.06,0,0,1,.79,3.94,2,2,0,0,0,1,1.77,2.06,2.06,0,0,0,1,.26,2,2,0,0,0,.93-.23,3,3,0,0,1,.86,1.95L12,26v0a10.91,10.91,0,0,0-1.52-1.89,2,2,0,0,0-2.82,0A10.71,10.71,0,0,0,6,26.16,5,5,0,0,1,4,22a4.24,4.24,0,0,1,1.37-3.24,9,9,0,0,0,2.12-3.4M6,11a7.86,7.86,0,0,1-2,6.38A6.15,6.15,0,0,0,2,22a7,7,0,0,0,5.23,6.89c0-.05,0-.09,0-.14,0-1.38,1.85-3.22,1.85-3.22s1.86,1.84,1.86,3.22a1.79,1.79,0,0,1,0,.23A3.21,3.21,0,0,0,14,26l.07-3a5.38,5.38,0,0,0-1.82-3.72,11.75,11.75,0,0,1-.87-1,3.69,3.69,0,0,1-1.1,1.06S10.38,13,6,11Z"/><rect class="cls-1" width="32" height="32"/></symbol><symbol viewBox="0 0 32 32" id="icon-dual-fuel"><title>dual-fuel</title><path d="M29.9,10.33A9.5,9.5,0,0,0,20.23,2a9.87,9.87,0,0,0-1.2.1,9.45,9.45,0,0,0-7.94,8.06,9.28,9.28,0,0,0,2.56,7.69A7.33,7.33,0,0,1,16,23h8.79c.14-2.84,1-3.49,2.55-5.15A9.27,9.27,0,0,0,29.9,10.33ZM20,18V14H17l4-6v5h3Z"/><polygon points="16 27.98 17.5 27.98 18.25 29.98 22.74 29.97 23.48 27.98 24.98 27.98 24.97 24.98 16 24.98 16 27.98"/><path d="M14,26V23a5.25,5.25,0,0,0-1.75-3.72,11.31,11.31,0,0,1-.9-1.05,3.78,3.78,0,0,1-1.11,1.11S10.28,13,6,11a7.94,7.94,0,0,1-2,6.38A6.19,6.19,0,0,0,2,22a6.94,6.94,0,0,0,5.15,6.89c0-.05,0-.09,0-.14C7.18,27.37,9,25,9,25s1.83,2.39,1.83,3.77a1.81,1.81,0,0,1,0,.23C12,29,14,27,14,26Z"/><rect class="cls-1" width="32" height="32"/></symbol><symbol viewBox="0 0 32 32" id="icon-electric-light-o"><title>electric-light-o</title><path d="M15.4,3.79a7.54,7.54,0,0,1,7.46,6.55,7.31,7.31,0,0,1-2,5.9l-.31.33A8,8,0,0,0,18,20.78H12.66A9.66,9.66,0,0,0,10,16.28a7.33,7.33,0,0,1-2-6.06A7.55,7.55,0,0,1,15.2,3.79h.2m0-2h-.25A9.91,9.91,0,0,0,14,1.9,9.46,9.46,0,0,0,6,10a9.32,9.32,0,0,0,2.56,7.71,7.34,7.34,0,0,1,2.4,5.1h8.81c.14-2.84,1-3.5,2.56-5.16a9.29,9.29,0,0,0,2.53-7.51A9.53,9.53,0,0,0,15.4,1.79Z"/><polygon points="14.91 17.77 14.91 13.76 11.91 13.76 15.91 7.75 15.91 12.76 18.91 12.76 14.91 17.77"/><polygon points="10.91 27.79 12.41 27.79 13.16 29.79 17.66 29.79 18.41 27.79 19.91 27.79 19.91 24.78 10.91 24.79 10.91 27.79"/><rect class="cls-1" width="32" height="32"/></symbol><symbol viewBox="0 0 32 32" id="icon-electric-light"><title>electric-light</title><path d="M25.44,10.32A9.54,9.54,0,0,0,15.74,2a10.1,10.1,0,0,0-1.2.11,9.46,9.46,0,0,0-8,8.07,9.32,9.32,0,0,0,2.56,7.71,7.34,7.34,0,0,1,2.4,5.1h8.81c.14-2.84,1-3.5,2.56-5.16A9.29,9.29,0,0,0,25.44,10.32ZM15.5,18V14h-3l4-6v5h3Z"/><polygon points="11.5 28 13 28 13.76 30 18.25 30 19 28 20.5 28 20.5 24.99 11.5 25 11.5 28"/><rect class="cls-1" width="32" height="32"/></symbol><symbol viewBox="0 0 32 32" id="icon-envelope-o"><title>envelope-o</title><path d="M28,8V24H4V8H28m2-2H2V26H30V6Z"/><polygon points="16 20.53 6.39 13.05 7.61 11.47 16 17.99 24.39 11.47 25.61 13.05 16 20.53"/><rect class="cls-1" width="32" height="32"/></symbol><symbol viewBox="0 0 32 32" id="icon-envelope"><title>envelope</title><path d="M2,6V26H30V6ZM16,20.27,6.41,12.79l1.23-1.58L16,17.73l8.36-6.52,1.23,1.58Z"/><rect class="cls-1" width="32" height="32"/></symbol><symbol viewBox="0 0 32 32" id="icon-exit-noexit"><title>exit-noexit</title><path d="M7.874 16.004c4.388 0 7.945-3.582 7.945-8s-3.56-8-7.95-8c-4.39 0-7.95 3.582-7.95 8s3.55 8 7.94 8zM4.636 7.388l1.576 1.604 4.9-4.988 1.48 1.505L6.212 12 3.157 8.89l1.48-1.506zM31.176.51c-.592-.595-1.552-.595-2.143 0L.343 29.4c-.59.595-.59 1.56 0 2.157.297.298.685.446 1.073.446.388 0 .776-.148 1.072-.446L31.176 2.67c.59-.597.59-1.564 0-2.16zm.724 19.427l-2.932-2.932-4.568 4.567-4.567-4.567-2.933 2.932 4.567 4.567L16.9 29.07l2.933 2.934 4.567-4.567 4.568 4.567L31.9 29.07l-4.567-4.566z"/></symbol><symbol viewBox="0 0 32 32" id="icon-facebook-brand"><title>facebook-brand</title><path d="M28.41,2.05H3.59A1.54,1.54,0,0,0,2.05,3.59V28.41A1.54,1.54,0,0,0,3.59,30H17V19.15H13.32V14.93H17v-3.1c0-3.61,2.2-5.57,5.42-5.57a29.7,29.7,0,0,1,3.25.17V10.2H23.39c-1.75,0-2.09.83-2.09,2.05v2.69h4.17l-.54,4.21H21.3V30h7.12A1.54,1.54,0,0,0,30,28.41V3.59A1.54,1.54,0,0,0,28.41,2.05Z"/><rect class="cls-1" width="32" height="32"/></symbol><symbol viewBox="0 0 32 32" id="icon-facebook"><title>facebook</title><path d="M16,2A14,14,0,1,0,30,16,14,14,0,0,0,16,2Zm3.5,9.33H17.92c-.62,0-.75.26-.75.91v1.43H19.5L19.26,16H17.17v8.17h-3.5V16H11.33V13.67h2.34V11c0-2.06,1.08-3.14,3.53-3.14h2.3Z"/><rect class="cls-1" width="32" height="32"/></symbol><symbol viewBox="0 0 32 32" id="icon-filter"><title>filter</title><rect x="2" y="7" width="15" height="2"/><polygon points="21 7 21 5 19 5 19 11 21 11 21 9 30 9 30 7 21 7"/><rect x="15" y="15" width="15" height="2"/><polygon points="11 19 13 19 13 13 11 13 11 15 2 15 2 17 11 17 11 19"/><rect x="2" y="23" width="15" height="2"/><polygon points="21 21 19 21 19 27 21 27 21 25 30 25 30 23 21 23 21 21"/><rect class="cls-1" width="32" height="32"/></symbol><symbol viewBox="0 0 32 32" id="icon-fixed-variable"><title>fixed-variable</title><path d="M30.833.53c-.58-.594-1.52-.594-2.1 0L.636 29.406c-.58.595-.58 1.562 0 2.157.29.298.67.446 1.05.446s.76-.15 1.05-.45L30.833 2.69c.58-.595.58-1.562 0-2.157zm1.27 26.44c-.05-.12-.163.03-.29.03H30v-5.478c0-.177-.93-.522-1.1-.522h-3.5c-.082 0-.206.135-.264.195-.058.06-.136.242-.136.327V27h-2.514c-.126 0-.24-.15-.287-.03-.05.12-.03.03.06.123l4.66 4.793c.05.06.13.094.22.094s.16-.034.22-.094l4.66-4.793c.09-.092.11-.003.07-.122zm-8.395-2.01c.058-.06.292-.086.292-.17V20h2.202c.126 0 .24-.196.287-.315.04-.12.02-.375-.07-.466l-4.67-4.8c-.06-.06-.14-.1-.22-.1-.08 0-.16.03-.22.09l-4.67 4.79c-.09.09-.12.34-.07.46.05.12.16.31.28.31H20v4.79c0 .17-.383.21-.21.21h3.497c.083 0 .363.02.42-.04zM1.9 16h10c.825 0 1.1-.675 1.1-1.5V9c0-.825-.275-1-1.1-1H11V4.5C11 2.02 8.98 0 6.5 0S2 2.02 2 4.5V8c-1 0-2 .175-2 1v5.5c0 .825 1.075 1.5 1.9 1.5zM4 4.5C4 3.12 5.12 2 6.5 2S9 3.12 9 4.5V8H4V4.5z"/></symbol><symbol viewBox="0 0 32 32" id="icon-gas-o"><title>gas-o</title><path d="M13.31,6A12,12,0,0,1,15,10.35a22.87,22.87,0,0,1,.44,5.38,2,2,0,0,0,.95,1.84,2,2,0,0,0,1,.29,2,2,0,0,0,1-.28,8.25,8.25,0,0,0,3.81-6A12.15,12.15,0,0,1,25,19.82a8.74,8.74,0,0,1-3.89,7,15.48,15.48,0,0,0-3.71-5.63,2,2,0,0,0-2.8,0A15.35,15.35,0,0,0,10.84,27,8.33,8.33,0,0,1,7,19.82a7,7,0,0,1,2.34-5.46,15.43,15.43,0,0,0,4-8.38M11.6,2S12,8.93,7.93,12.94A9,9,0,0,0,5,19.82,10.35,10.35,0,0,0,12.76,30a3.71,3.71,0,0,1-.2-1.24C12.56,26,16,22.62,16,22.62s3.44,3.37,3.44,6.14a3.89,3.89,0,0,1-.17,1.17A11,11,0,0,0,27,19.82C27,18,27,10.75,19.67,7.1L20,8.16a6.46,6.46,0,0,1-2.5,7.7S18.2,4.92,11.6,2Z"/><rect class="cls-1" width="32" height="32"/></symbol><symbol viewBox="0 0 32 32" id="icon-gas"><title>gas</title><path d="M19.67,7.1,20,8.16a6.46,6.46,0,0,1-2.5,7.7S18.2,4.92,11.6,2c0,0,.37,6.93-3.67,10.94A9,9,0,0,0,5,19.82,10.35,10.35,0,0,0,12.76,30a3.71,3.71,0,0,1-.2-1.24C12.56,26,16,22.62,16,22.62s3.44,3.37,3.44,6.14a3.89,3.89,0,0,1-.17,1.17A11,11,0,0,0,27,19.82C27,18,27,10.75,19.67,7.1Z"/><rect class="cls-1" width="32" height="32"/></symbol><symbol viewBox="0 0 32 32" id="icon-gauge"><title>gauge</title><path d="M16 .004c-8.837 0-16 7.163-16 16s7.163 16 16 16 16-7.163 16-16-7.163-16-16-16zm-1 4.063c0-.553.447-1 1-1 .553 0 1 .447 1 1v1.875c0 .553-.447 1-1 1-.553 0-1-.447-1-1V4.067zm-4.91 5.635c-.385.396-1.017.404-1.413.02L7.334 8.41c-.396-.382-.404-1.014-.02-1.41.387-.397 1.02-.406 1.415-.02l1.34 1.308c.39.386.4 1.018.02 1.414zm1.43-2.598l-.79-1.7c-.234-.5-.018-1.095.483-1.33.5-.232 1.095-.016 1.33.485l.79 1.7c.234.5.018 1.09-.483 1.32-.502.23-1.096.01-1.33-.49zm7.555 17.386c-.613 1.552-2.368 2.312-3.92 1.7-1.552-.614-2.445-2.37-1.83-3.92.333-.848.675-1.447 1.675-1.728v-8.91c0-.553.447-1 1-1 .553 0 1 .447 1 1v8.906c0 .013.207.017.244.03 1.55.615 2.444 2.37 1.83 3.922zm2.727-19.085l-.792 1.7c-.233.5-.828.718-1.33.484-.5-.24-.717-.83-.483-1.33l.792-1.7c.23-.5.82-.72 1.32-.49.5.23.72.82.48 1.33zm3.395 3.008L23.854 9.72c-.396.387-1.03.378-1.414-.018s-.377-1.03.02-1.414L23.8 6.98c.396-.386 1.03-.377 1.414.02.386.395.378 1.027-.02 1.413z"/></symbol><symbol viewBox="0 0 32 32" id="icon-github"><title>github</title><path d="M16,2A14.18,14.18,0,0,0,2,16.35,14.31,14.31,0,0,0,11.58,30c.7.14.92-.31.92-.69V26.61c-3.89.87-4.7-1.69-4.7-1.69a3.74,3.74,0,0,0-1.55-2.1c-1.27-.89.1-.87.1-.87a3,3,0,0,1,2.14,1.48,2.93,2.93,0,0,0,4.07,1.19,3.06,3.06,0,0,1,.89-1.92c-3.11-.37-6.37-1.6-6.37-7.09a5.63,5.63,0,0,1,1.44-3.86A5.24,5.24,0,0,1,8.65,8s1.18-.38,3.85,1.47A13.62,13.62,0,0,1,16,8.94a13.56,13.56,0,0,1,3.5.48C22.17,7.57,23.35,8,23.35,8a5.24,5.24,0,0,1,.13,3.8,5.63,5.63,0,0,1,1.44,3.86c0,5.51-3.27,6.72-6.38,7.08a3.48,3.48,0,0,1,1,2.66v3.93c0,.39.22.83.93.69A14.34,14.34,0,0,0,30,16.35,14.18,14.18,0,0,0,16,2Z"/><rect class="cls-1" width="32" height="32"/></symbol><symbol viewBox="0 0 31.36 32" id="icon-google-brand"><title>google-brand</title><path d="M31.36 16.36a18.49 18.49 0 0 0-.29-3.27H16v6.19h8.61a7.35 7.35 0 0 1-3.19 4.83v4h5.17a15.6 15.6 0 0 0 4.77-11.76z" fill="#4285f4"/><path d="M16 32a15.28 15.28 0 0 0 10.59-3.88l-5.17-4A9.66 9.66 0 0 1 7.05 19H1.68v4.14A16 16 0 0 0 16 32z" fill="#34a853"/><path d="M7.05 19a9.46 9.46 0 0 1 0-6.08V8.81H1.68a16 16 0 0 0 0 14.37z" fill="#fbbc05"/><path d="M16 6.36a8.64 8.64 0 0 1 6.12 2.39l4.56-4.58A15.39 15.39 0 0 0 16 0 16 16 0 0 0 1.68 8.81L7.05 13A9.54 9.54 0 0 1 16 6.36z" fill="#ea4335"/></symbol><symbol viewBox="0 0 32 32" id="icon-google"><title>google</title><path d="M16 0C7.2 0 0 7.2 0 16s7.2 16 16 16 16-7.2 16-16S24.8 0 16 0zm-4.2 23.4c-4.1 0-7.4-3.3-7.4-7.4s3.3-7.4 7.4-7.4c2 0 3.7.7 5 1.9l-2 1.9c-.5-.5-1.5-1.2-3-1.2-2.4 0-4.6 2.1-4.6 4.7s2 4.7 4.6 4.7c3 0 4-2.1 4.2-3.2h-4.2V15h7c0 .4.1.7.1 1.3 0 4.1-2.9 7.1-7.1 7.1zm13.8-6.3v2.1h-2.1v-2.1h-2.1V15h2.1v-2.1h2.1V15h2.1v2.1h-2.1z"/></symbol><symbol viewBox="0 0 32 32" id="icon-graph-up-o"><title>graph-up-o</title><path d="M10.26,19.1h-6v7h6Zm-2,5h-2v-3h2Z"/><path d="M12.26,26.1h6v-10h-6Zm2-8h2v6h-2Z"/><path d="M20.26,26.1h7v-14h-7Zm2-12h3v10h-3Z"/><rect x="3.26" y="28.1" width="26" height="2"/><polygon points="14.1 9.81 16.8 12.51 24.26 5.43 24.26 8.1 26.26 8.1 26.26 2.1 20.26 2.1 20.26 4.1 22.75 4.1 16.84 9.72 14.2 7.08 4.61 15.34 5.91 16.86 14.1 9.81"/><rect class="cls-1" width="32" height="32"/></symbol><symbol viewBox="0 0 32 32" id="icon-graph-up"><title>graph-up</title><rect class="cls-1" width="32" height="32"/><path d="M10.26,19.1h-6v7h6Z"/><path d="M12.26,26.1h6v-10h-6Z"/><path d="M20.26,26.1h7v-14h-7Z"/><rect x="3.26" y="28.1" width="26" height="2"/><polygon points="14.1 9.81 16.8 12.51 24.26 5.43 24.26 8.1 26.26 8.1 26.26 2.1 20.26 2.1 20.26 4.1 22.75 4.1 16.84 9.72 14.2 7.08 4.61 15.34 5.91 16.86 14.1 9.81"/></symbol><symbol viewBox="0 0 32 32" id="icon-heart-o"><title>heart-o</title><path d="M30,10.39c0-.19,0-.38-.06-.57a7.89,7.89,0,0,0-6.66-6.76,7.73,7.73,0,0,0-1-.06A7.58,7.58,0,0,0,16,6.42,7.58,7.58,0,0,0,9.7,3a7.73,7.73,0,0,0-1,.06A7.89,7.89,0,0,0,2.08,9.82c0,.19-.05.38-.06.57A8.36,8.36,0,0,0,3.81,16L16,29,28.19,16A8.36,8.36,0,0,0,30,10.39Zm-3.32,4.36L16,26.08,5.34,14.75A6.28,6.28,0,0,1,4,10.54c0-.15,0-.29,0-.44A5.91,5.91,0,0,1,9,5.05,5.52,5.52,0,0,1,9.7,5a5.63,5.63,0,0,1,4.64,2.54L16,10l1.66-2.46A5.63,5.63,0,0,1,22.3,5a5.52,5.52,0,0,1,.71,0,5.91,5.91,0,0,1,4.93,5.05c0,.15,0,.29,0,.44A6.28,6.28,0,0,1,26.66,14.75Z"/><path d="M5,12H7c0-2.21,1.35-4,3-4V6C7.24,6,5,8.69,5,12Z"/><rect class="cls-1" width="32" height="32"/></symbol><symbol viewBox="0 0 32 32" id="icon-heart"><title>heart</title><path d="M30,10.39c0-.19,0-.38-.06-.57a7.89,7.89,0,0,0-6.66-6.76A7.56,7.56,0,0,0,16,6.42,7.56,7.56,0,0,0,8.74,3.06,7.89,7.89,0,0,0,2.08,9.82c0,.19-.05.38-.06.57A8.36,8.36,0,0,0,3.81,16L16,29,28.19,16A8.36,8.36,0,0,0,30,10.39ZM10,8C8.35,8,7,9.79,7,12H5c0-3.31,2.24-6,5-6Z"/><rect class="cls-1" width="32" height="32"/></symbol><symbol viewBox="0 0 32 32" id="icon-home-o"><title>home-o</title><path d="M16,4.59l10,8.16a.07.07,0,0,1,0,.07V28H21V18H11V28L6,28V12.82a.09.09,0,0,1,0-.08L16,4.59M16,2,4.77,11.2A2.08,2.08,0,0,0,4,12.82V30l9,0V20h6V30l9,0V12.82a2.08,2.08,0,0,0-.77-1.62L16,2Z"/><rect class="cls-1" width="32" height="32"/></symbol><symbol viewBox="0 0 32 32" id="icon-home"><title>home</title><path d="M12,20h8V30l8,0V12.82a2.08,2.08,0,0,0-.77-1.62L16,2,4.77,11.2A2.08,2.08,0,0,0,4,12.82V30l8,0Z"/><rect class="cls-1" width="32" height="32"/></symbol><symbol viewBox="0 0 32 32" id="icon-hot"><title>hot</title><path d="M17 19.195v-7.93c0-.666-.337-1.205-1-1.205-.66 0-1 .538-1 1.205v7.93c-2 .517-3.03 2.1-3.03 3.973 0 2.294 1.8 4.154 4.08 4.154 2.28 0 4.003-1.86 4.003-4.154 0-1.873-1.053-3.456-3.053-3.973zm5-2.923V5.526C22 2.48 19.025.004 16 .004c-3.026 0-6 2.477-6 5.522v10.746c-2 1.66-3.038 4.19-3.038 6.896 0 4.872 4.068 8.836 8.91 8.836 4.84 0 9.1-3.963 9.1-8.836 0-2.705-.972-5.236-2.972-6.896zm-6 13.32c-3.526 0-6.34-2.874-6.34-6.423 0-2.42 1.34-4.53 3.34-5.63V5.52c0-1.72 1.294-3.11 3-3.11 1.707 0 3 1.397 3 3.11v12.03c2 1.094 3.338 3.2 3.338 5.617 0 3.55-2.81 6.425-6.338 6.425z"/></symbol><symbol viewBox="0 0 32 32" id="icon-house-o"><title>house-o</title><path d="M16,4.63,26.93,14H24V28H20V20H12v8H8V14H5.07L16,4.63M16,2,2,14v2H6V30l8,0V22h4v8l8,0V16h4V14L16,2Z"/><rect class="cls-1" width="32" height="32"/></symbol><symbol viewBox="0 0 32 32" id="icon-house"><title>house</title><polygon points="13 22 19 22 19 29.98 26 29.96 26 16 30 16 30 14 15.99 2 2 14 2 16 6 16 6.01 29.98 13 30 13 22"/><rect class="cls-1" width="32" height="32"/></symbol><symbol viewBox="0 0 32 32" id="icon-info-o"><title>info-o</title><path d="M16,2A14,14,0,1,0,30,16,14,14,0,0,0,16,2Zm0,26A12,12,0,1,1,28,16,12,12,0,0,1,16,28Z"/><rect x="13.97" y="17" width="4.06" height="7"/><path d="M16,9a3,3,0,1,0,3,3A3,3,0,0,0,16,9Z"/><rect class="cls-1" width="32" height="32"/></symbol><symbol viewBox="0 0 32 32" id="icon-info"><title>info</title><path d="M16,2A14,14,0,1,0,30,16,14,14,0,0,0,16,2Zm2,22H14V17H18ZM16,15a3,3,0,1,1,3-3A3,3,0,0,1,16,15Z"/><rect class="cls-1" width="32" height="32"/></symbol><symbol viewBox="0 0 32 32" id="icon-ipad-o"><title>ipad-o</title><path d="M28,7.05l0,17.88L4,25,4,7.07l24,0m2-2-28,0L2,27l28,0L30,5.05Z"/><rect x="4.52" y="14.95" width="5.46" height="2.09" transform="translate(23.25 8.73) rotate(89.95)"/><rect class="cls-1" width="32" height="32"/></symbol><symbol viewBox="0 0 32 32" id="icon-ipad"><title>ipad</title><path d="M30,5,2,5,2,27,30,27ZM4.14,18.06V13.94H6.22v4.12ZM8.21,25V7H28l0,18Z"/><rect class="cls-1" width="32" height="32"/></symbol><symbol viewBox="0 0 32 32" id="icon-kettle-o"><title>kettle-o</title><path d="M24.51,10.92h0V8.42h-21v1.94l4,3.61v12a3.78,3.78,0,0,0,4,3.5h9a3.78,3.78,0,0,0,4-3.5v-3h0a6,6,0,0,0,0-12Zm-2,15c0,.81-.92,1.5-2,1.5h-9c-1.09,0-2-.69-2-1.5V13.08l-.66-.59L6.56,10.42h16Zm2-5h0v-8h0a4,4,0,0,1,0,8Z"/><polygon points="24.51 4.42 17.51 4.42 17.51 2.42 15.51 2.42 15.51 4.42 8.51 4.42 8.51 6.42 24.51 6.42 24.51 4.42"/><rect x="11.51" y="17.42" width="2" height="7"/><rect class="cls-1" width="32" height="32"/></symbol><symbol viewBox="0 0 32 32" id="icon-kettle"><title>kettle</title><polygon points="17.72 2.42 15.72 2.42 15.72 4.42 8.72 4.42 8.72 6.42 24.72 6.42 24.72 4.42 17.72 4.42 17.72 2.42 17.72 2.42"/><path d="M24.72,10.92h0V8.42h-21v1.94l4,3.61v12a3.78,3.78,0,0,0,4,3.5h9a3.78,3.78,0,0,0,4-3.5v-3h0a6,6,0,0,0,0-12Zm-11,13.5h-2v-7h2Zm11-3.5h0v-8h0a4,4,0,0,1,0,8Z"/><rect class="cls-1" width="32" height="32"/></symbol><symbol viewBox="0 0 32 32" id="icon-key-o"><title>key-o</title><path class="cls-1" d="M24.23,2,13.58,12.66a8.8,8.8,0,0,0-8.52,2.25A8.87,8.87,0,0,0,11.38,30a8.77,8.77,0,0,0,8.46-11.08L23.5,15V12h3V9h3V2ZM27.5,7h-3v3h-3v4.21l-3.12,3.34-.76.81.29,1.08A6.81,6.81,0,1,1,6.48,16.33a6.69,6.69,0,0,1,4.79-2,6.77,6.77,0,0,1,1.79.24l1.12.3.81-.82L25.06,4H27.5Z"/><circle cx="9.58" cy="22.99" r="2.51"/><rect class="cls-2" width="32" height="32"/></symbol><symbol viewBox="0 0 32 32" id="icon-key"><title>key</title><path class="cls-1" d="M24.23,2,13.58,12.66a8.85,8.85,0,1,0,6.26,6.26L23.5,15V12h3V9h3V2ZM11.36,24.77a2.51,2.51,0,1,1,0-3.56A2.51,2.51,0,0,1,11.36,24.77Z"/><rect class="cls-2" width="32" height="32"/></symbol><symbol viewBox="0 0 32 32" id="icon-laptop-o"><title>laptop-o</title><path d="M27.2,19.57V8.14A2.12,2.12,0,0,0,25.1,6H6.9A2.12,2.12,0,0,0,4.8,8.14V19.57H2V23a3,3,0,0,0,3,3H27a3,3,0,0,0,3-3V19.57ZM6.8,8.14A.13.13,0,0,1,6.9,8H25.1a.13.13,0,0,1,.1.14V19.57H6.8ZM28,23a1,1,0,0,1-1,1H5a1,1,0,0,1-1-1V21.57h.8v.14h8.4v.72h5.6v-.72h8.4v-.14H28Z"/><circle cx="16" cy="11" r="1"/><rect class="cls-1" width="32" height="32"/></symbol><symbol viewBox="0 0 32 32" id="icon-laptop"><title>laptop</title><path d="M27.9,21V8.14A2.12,2.12,0,0,0,25.8,6H6.2A2.12,2.12,0,0,0,4.1,8.14V21H2v2a3,3,0,0,0,3,3H27a3,3,0,0,0,3-3V21Zm-2,0H18.8v1.43H13.2V21H6.1V8.14A.13.13,0,0,1,6.2,8H25.8a.13.13,0,0,1,.1.14Z"/><circle cx="16" cy="11" r="1"/><rect class="cls-1" width="32" height="32"/></symbol><symbol viewBox="0 0 32 32" id="icon-lock-o"><title>lock-o</title><path d="M27,15H23V8.58A6.59,6.59,0,0,0,16.39,2h-.82A6.6,6.6,0,0,0,9,8.59V15H5V30l22,0ZM11,8.59A4.61,4.61,0,0,1,15.58,4h.81A4.6,4.6,0,0,1,21,8.58V15H11ZM7,28V17H25V28Z"/><rect x="14.98" y="20.99" width="2" height="4"/><rect class="cls-1" width="32" height="32"/></symbol><symbol viewBox="0 0 32 32" id="icon-lock"><title>lock</title><path d="M27,15H23V8.58A6.59,6.59,0,0,0,16.39,2h-.82A6.6,6.6,0,0,0,9,8.59V15H5V30l22,0ZM11,8.59A4.61,4.61,0,0,1,15.58,4h.81A4.6,4.6,0,0,1,21,8.58V15H11ZM15,25V21h2v4Z"/><rect class="cls-1" width="32" height="32"/></symbol><symbol viewBox="0 0 32 32" id="icon-logout-o"><title>logout-o</title><polygon points="4.07 2.02 4.07 13.02 6.07 13.02 6.07 4.02 27.93 4.02 27.93 27.98 6.07 27.98 6.07 19.02 4.07 19.02 4.07 29.98 29.93 29.98 29.93 2.02 4.07 2.02"/><polygon points="11.77 8.31 10.36 9.73 15.61 14.97 2.07 14.97 2.07 16.95 15.72 16.95 10.36 22.31 11.77 23.73 19.48 16.02 11.77 8.31"/><rect class="cls-1" width="32" height="32"/></symbol><symbol viewBox="0 0 32 32" id="icon-logout"><title>logout</title><polygon points="3.07 2.02 3.07 14.97 14.61 14.97 9.36 9.73 10.77 8.31 18.48 16.02 10.77 23.73 9.36 22.31 14.72 16.95 3.07 16.95 3.07 29.98 28.93 29.98 28.93 2.02 3.07 2.02"/><rect class="cls-1" width="32" height="32"/></symbol><symbol viewBox="0 0 32 32" id="icon-magnify-in"><title>magnify-in</title><path d="M30,28.56l-8.49-8.48A11,11,0,1,0,13.05,24a11,11,0,0,0,7-2.52L28.55,30ZM4,13a9,9,0,1,1,9,9A9,9,0,0,1,4,13Z"/><polygon points="14.06 7.03 12.06 7.03 12.06 12.03 7.06 12.03 7.06 14.03 12.06 14.03 12.06 19.17 14.06 19.17 14.06 14.03 19.06 14.03 19.06 12.03 14.06 12.03 14.06 7.03"/><rect class="cls-1" width="32" height="32"/></symbol><symbol viewBox="0 0 32 32" id="icon-magnify"><title>magnify</title><path d="M30,28.56l-8.49-8.48A11,11,0,1,0,13.05,24a11,11,0,0,0,7-2.52L28.55,30ZM4,13a9,9,0,1,1,9,9A9,9,0,0,1,4,13Z"/><rect class="cls-1" width="32" height="32"/></symbol><symbol viewBox="0 0 32 32" id="icon-menu"><title>menu</title><rect x="2.19" y="7" width="27.63" height="2"/><rect x="2.19" y="15" width="19.13" height="2"/><rect x="2.19" y="23" width="27.63" height="2"/><rect class="cls-1" width="32" height="32"/></symbol><symbol viewBox="0 0 32 32" id="icon-message-o"><title>message-o</title><path d="M30,6.48a4,4,0,0,0-4-4h0L6,2.5a4,4,0,0,0-4,4v23l6-6H26a4,4,0,0,0,4-4ZM27.41,20.92A2,2,0,0,1,26,21.5H7.17l-.59.59L4,24.68V6.5a2,2,0,0,1,2-2l20,0h0a2,2,0,0,1,2,2v13A2,2,0,0,1,27.41,20.92Z"/><rect x="8" y="12.51" width="16" height="2"/><rect x="8" y="16.5" width="9" height="2"/><rect x="8" y="8.51" width="16" height="2"/><rect class="cls-1" width="32" height="32"/></symbol><symbol viewBox="0 0 32 32" id="icon-message"><title>message</title><path d="M30,6.48a4,4,0,0,0-4-4L6,2.5a4,4,0,0,0-4,4v23l6-6H26a4,4,0,0,0,4-4Zm-22,12v-2h9v2Zm0-4v-2H24v2Zm0-4v-2H24v2Z"/><rect class="cls-1" width="32" height="32"/></symbol><symbol viewBox="0 0 32 32" id="icon-mobile-sim-o"><title>mobile-sim-o</title><rect x="9.01" y="24" width="5" height="2"/><polygon points="18.01 21 18.02 27.98 5.02 28 5 4.01 13.93 4 13.93 2 2.99 2.01 3.02 30 20.02 29.98 20.01 21 18.01 21"/><path d="M25.85,2H16V19H29V5.55ZM27,17H18V4h7L27,6.31Z"/><rect x="19.01" y="11" width="7" height="5"/><rect class="cls-1" width="32" height="32"/></symbol><symbol viewBox="0 0 32 32" id="icon-mobile-sim"><title>mobile-sim</title><path d="M18,21v3H5V4h8.93V2H3L3,30l17,0V21Zm-4,7H9V26h5Z"/><path d="M25.85,2H16V19H29V5.55ZM26,16H19V11h7Z"/><rect class="cls-1" width="32" height="32"/></symbol><symbol viewBox="0 0 32 32" id="icon-mobile"><title>mobile</title><path d="M24,2H8L8,30H24ZM18.35,28h-4.7V26h4.7ZM10,24,10,4H22l0,20Z"/><rect class="cls-1" width="32" height="32"/></symbol><symbol viewBox="0 0 32 32" id="icon-monthly-dd-o"><title>monthly-dd-o</title><path d="M25,4.93V2H23V4.93H9V2H7V4.93H2v5H2v2H2V30H30V4.93Zm-21,2H28v3H4ZM4,28V12H28V28Z"/><path d="M15.56,19.87c0,2.31-1.11,3.86-3.51,3.86H8.67V16H11.9C14.32,16,15.56,17.44,15.56,19.87Zm-2,0c0-1.45-.57-2.19-2-2.19h-.92V22h1C13,22,13.55,21.3,13.55,19.87Z"/><path d="M23.57,19.87c0,2.31-1.11,3.86-3.51,3.86H16.68V16h3.23C22.33,16,23.57,17.44,23.57,19.87Zm-2,0c0-1.45-.58-2.19-1.95-2.19h-.92V22h1C21,22,21.56,21.3,21.56,19.87Z"/><rect class="cls-1" width="32" height="32"/></symbol><symbol viewBox="0 0 32 32" id="icon-monthly-dd"><title>monthly-dd</title><polygon points="24.98 4.93 24.98 2 22.98 2 22.98 4.93 8.98 4.93 8.98 2 6.98 2 6.98 4.93 2 4.93 2 9.43 30 9.43 30 4.93 24.98 4.93"/><path d="M2,11.43V30H30V11.43Zm10,12.3H8.66V16h3.23c2.42,0,3.66,1.42,3.66,3.85S14.44,23.73,12,23.73Zm8,0H16.67V16H19.9c2.42,0,3.66,1.42,3.66,3.85S22.45,23.73,20.05,23.73Z"/><path d="M19.6,17.68h-.92V22h1c1.27,0,1.84-.73,1.84-2.16S21,17.68,19.6,17.68Z"/><path d="M11.59,17.68h-.92V22h1c1.27,0,1.84-.73,1.84-2.16S13,17.68,11.59,17.68Z"/><rect class="cls-1" width="32" height="32"/></symbol><symbol viewBox="0 0 32 32" id="icon-months-o"><title>months-o</title><rect x="8.03" y="16" width="4" height="3"/><path d="M25,4.93V2H23V4.93H9V2H7V4.93H2V30H30V4.93ZM28,28H4V12H28Zm0-18H4v-3H28Z"/><rect x="8.03" y="21" width="4" height="3"/><rect x="14.03" y="16" width="4" height="3"/><rect x="14.03" y="21" width="4" height="3"/><rect x="20.03" y="16" width="4" height="3"/><rect x="20.03" y="21" width="4" height="3"/><rect class="cls-1" width="32" height="32"/></symbol><symbol viewBox="0 0 32 32" id="icon-months"><title>months</title><polygon points="25 4.93 25 2 23 2 23 4.93 9 4.93 9 2 7 2 7 4.93 2 4.93 2 9.95 30 9.95 30 4.93 25 4.93"/><path d="M2,12V30H30V12ZM12,24H8V21h4Zm0-5H8V16h4Zm6,5H14V21h4Zm0-5H14V16h4Zm6,5H20V21h4Zm0-5H20V16h4Z"/><rect class="cls-1" width="32" height="32"/></symbol><symbol viewBox="0 0 32 32" id="icon-network-o"><title>network-o</title><rect class="cls-1" width="32" height="32"/><path d="M16.15,11.64A4.12,4.12,0,1,0,12,7.52,4.12,4.12,0,0,0,16.15,11.64Zm0-6.23A2.12,2.12,0,1,1,14,7.52,2.12,2.12,0,0,1,16.15,5.41Z"/><polygon points="21 19.87 17.22 16.09 17.19 16.12 17.19 13.11 15.19 13.11 15.19 15.98 11.07 20.11 12.48 21.52 16.16 17.85 19.59 21.28 21 19.87"/><path d="M24.68,20.36a4.12,4.12,0,1,0,4.11,4.12A4.13,4.13,0,0,0,24.68,20.36Zm0,6.23a2.12,2.12,0,1,1,2.11-2.11A2.12,2.12,0,0,1,24.68,26.59Z"/><path d="M7.32,20.36a4.12,4.12,0,1,0,4.12,4.12A4.12,4.12,0,0,0,7.32,20.36Zm0,6.23a2.12,2.12,0,1,1,2.12-2.11A2.12,2.12,0,0,1,7.32,26.59Z"/></symbol><symbol viewBox="0 0 32 32" id="icon-network"><title>network</title><rect class="cls-1" width="32" height="32"/><path d="M16.15,11.64A4.12,4.12,0,1,0,12,7.52,4.12,4.12,0,0,0,16.15,11.64Z"/><polygon points="21 19.87 17.22 16.09 17.19 16.12 17.19 13.11 15.19 13.11 15.19 15.98 11.07 20.11 12.48 21.52 16.16 17.85 19.59 21.28 21 19.87"/><path d="M24.68,20.36a4.12,4.12,0,1,0,4.11,4.12A4.13,4.13,0,0,0,24.68,20.36Z"/><path d="M7.32,20.36a4.12,4.12,0,1,0,4.12,4.12A4.12,4.12,0,0,0,7.32,20.36Z"/></symbol><symbol viewBox="0 0 32 32" id="icon-no-exit"><title>no-exit</title><path d="M16,2A14,14,0,1,0,30,16,14,14,0,0,0,16,2ZM4,16a12,12,0,0,1,19.7-9.15L6.87,23.75A12,12,0,0,1,4,16ZM16,28a11.9,11.9,0,0,1-7.72-2.84L25.14,8.27A12,12,0,0,1,16,28Z"/><rect class="cls-1" width="32" height="32"/></symbol><symbol viewBox="0 0 32 32" id="icon-pdf-o"><title>pdf-o</title><path d="M29.42,11.81h-5v-4l-6.75-6H3.42v28h21v-5h5Zm-7,16h-17v-24h11v5h6v3h-13v13h13Zm5-5h-16v-9h16Z"/><path d="M17,17.33a1.56,1.56,0,0,1-1.75,1.6h-.87v1.54H13.17V15.74h2.17A1.54,1.54,0,0,1,17,17.33Zm-1.21,0c0-.4-.26-.6-.68-.6h-.73V18h.69C15.57,18,15.82,17.74,15.82,17.34Z"/><path d="M21.81,18.1c0,1.42-.68,2.37-2.15,2.37H17.58V15.74h2A2.08,2.08,0,0,1,21.81,18.1Zm-1.24,0c0-.89-.35-1.34-1.19-1.34h-.56v2.66h.62C20.22,19.42,20.57,19,20.57,18.1Z"/><path d="M23.69,16.79v.85h2v1h-2v1.82H22.45V15.74H26v1Z"/><rect class="cls-1" width="32" height="32"/></symbol><symbol viewBox="0 0 32 32" id="icon-pdf"><title>pdf</title><path d="M28.68,11.81h-5v-4l-6.75-6H2.68v28h21v-5h5Zm-13-9,7,6h-7Zm11,20h-16v-9h16Z"/><path d="M16.32,17.33a1.56,1.56,0,0,1-1.75,1.6H13.7v1.54H12.46V15.74h2.17A1.54,1.54,0,0,1,16.32,17.33Zm-1.21,0c0-.4-.26-.6-.68-.6H13.7V18h.69C14.86,18,15.11,17.74,15.11,17.34Z"/><path d="M21.1,18.1c0,1.42-.68,2.37-2.15,2.37H16.87V15.74h2A2.07,2.07,0,0,1,21.1,18.1Zm-1.23,0c0-.89-.35-1.34-1.2-1.34h-.56v2.66h.63C19.52,19.42,19.87,19,19.87,18.1Z"/><path d="M23,16.79v.85h2v1H23v1.82H21.74V15.74h3.59v1Z"/><rect class="cls-1" width="32" height="32"/></symbol><symbol viewBox="0 0 32 32" id="icon-pencil-o"><title>pencil-o</title><path d="M29.18,9.89,21.92,2.64a2.06,2.06,0,0,0-1.46-.59,2.61,2.61,0,0,0-1.85.8L4,17.45A2.65,2.65,0,0,0,3.23,19L2.23,30l10.55-1.37a2.67,2.67,0,0,0,1.6-.78L29,13.21A2.36,2.36,0,0,0,29.18,9.89ZM4.45,27.64l.77-8.39a.38.38,0,0,1,0-.1l7.41,7.41-.14,0ZM27.56,11.8,14.14,25.21,6.61,17.68,20,4.26a.7.7,0,0,1,.44-.21h.05l7.25,7.25A.59.59,0,0,1,27.56,11.8Z"/><rect class="cls-1" width="32" height="32"/></symbol><symbol viewBox="0 0 32 32" id="icon-pencil"><title>pencil</title><path d="M3.83,17.7A2.69,2.69,0,0,0,3.26,19L2.27,30l10.52-1.37A2.65,2.65,0,0,0,14.13,28Z"/><path d="M29.14,9.89,21.91,2.64a2.34,2.34,0,0,0-3.31.21L5.22,16.26,15.56,26.62,28.94,13.21A2.36,2.36,0,0,0,29.14,9.89Z"/><rect class="cls-1" width="32" height="32"/></symbol><symbol viewBox="0 0 32 32" id="icon-person-add-o"><title>person-add-o</title><polygon points="30 13.5 26 13.5 26 9.5 24 9.5 24 13.5 20 13.5 20 15.5 24 15.5 24 19.5 26 19.5 26 15.5 30 15.5 30 13.5"/><path d="M11.43,17.5A6.5,6.5,0,1,0,4.88,11,6.52,6.52,0,0,0,11.43,17.5Zm0-11A4.5,4.5,0,1,1,6.88,11,4.53,4.53,0,0,1,11.43,6.5Z"/><path d="M17.71,19.5H5.14A3.17,3.17,0,0,0,2,22.7v4.8H20.86V22.7A3.17,3.17,0,0,0,17.71,19.5Zm1.15,6H4V22.7a1.17,1.17,0,0,1,1.14-1.2H17.71a1.18,1.18,0,0,1,1.15,1.2Z"/><rect class="cls-1" width="32" height="32"/></symbol><symbol viewBox="0 0 32 32" id="icon-person-add"><title>person-add</title><polygon points="30 13.5 26 13.5 26 9.5 24 9.5 24 13.5 20 13.5 20 15.5 24 15.5 24 19.5 26 19.5 26 15.5 30 15.5 30 13.5"/><ellipse cx="11.43" cy="11" rx="6.55" ry="6.5"/><path d="M17.71,19.5H5.14A3.17,3.17,0,0,0,2,22.7v4.8H20.86V22.7A3.17,3.17,0,0,0,17.71,19.5Z"/><rect class="cls-1" width="32" height="32"/></symbol><symbol viewBox="0 0 32 32" id="icon-person-o"><title>person-o</title><path d="M16,5.17a5.33,5.33,0,1,1-5.33,5.33A5.33,5.33,0,0,1,16,5.17m0-2a7.33,7.33,0,1,0,7.33,7.33A7.33,7.33,0,0,0,16,3.17Z"/><path d="M23.33,21.67A1.66,1.66,0,0,1,25,23.33v3.5H7v-3.5a1.66,1.66,0,0,1,1.67-1.66H23.33m0-2H8.67A3.66,3.66,0,0,0,5,23.33v5.5H27v-5.5a3.66,3.66,0,0,0-3.67-3.66Z"/><rect class="cls-1" width="32" height="32"/></symbol><symbol viewBox="0 0 32 32" id="icon-person"><title>person</title><circle cx="16" cy="10.5" r="7.33"/><path d="M5,28.83v-5.5a3.66,3.66,0,0,1,3.67-3.66H23.33A3.66,3.66,0,0,1,27,23.33v5.5Z"/><rect class="cls-1" width="32" height="32"/></symbol><symbol viewBox="0 0 32 32" id="icon-phone-o"><title>phone-o</title><path d="M7.41,4a.48.48,0,0,1,.33.13L10.9,7.28l-2,2.43-.11.14L8.67,10a4.55,4.55,0,0,0,.66,5.48l7.37,7.37a4.43,4.43,0,0,0,3.16,1.3,4.71,4.71,0,0,0,2.33-.63l.15-.09.13-.11,2.44-2,2.79,2.79a.5.5,0,0,1,.13.36.72.72,0,0,1-.27.51C25.08,27,22.82,28,20.65,28c-3,0-6.24-1.85-10.2-5.82-7-7-8.08-12.23-3.59-17.92A.71.71,0,0,1,7.41,4h0m0-2A2.7,2.7,0,0,0,5.29,3C0,9.72,1.55,16.12,9,23.61c4.29,4.28,8,6.4,11.62,6.4,2.71,0,5.37-1.18,8.19-3.52a2.6,2.6,0,0,0,.28-3.82L25,18.58l-3.84,3.21a2.69,2.69,0,0,1-1.33.36,2.42,2.42,0,0,1-1.74-.71l-7.37-7.37A2.53,2.53,0,0,1,10.4,11l3.21-3.84L9.15,2.71A2.42,2.42,0,0,0,7.41,2Z"/><rect class="cls-1" width="32" height="32"/></symbol><symbol viewBox="0 0 32 32" id="icon-phone"><title>phone</title><path d="M18,21.74l-7.37-7.37a2.57,2.57,0,0,1-.35-3.08l2-2.43a2,2,0,0,0-.12-2.7L9,3a2.61,2.61,0,0,0-3.86.32C-.14,10,2.36,14.71,9.84,22.2s12.26,10,18.84,4.59A2.61,2.61,0,0,0,29,23l-2.79-2.79a2,2,0,0,0-2.7-.12l-2.43,2A2.55,2.55,0,0,1,18,21.74Z"/><rect class="cls-1" width="32" height="32"/></symbol><symbol viewBox="0 0 32 32" id="icon-picture-o"><title>picture-o</title><path d="M28,5.06V26.94H4V5.06H28m2-2H2V28.94H30V3.06Z"/><polygon points="20.85 13.86 15.33 20.59 11.85 16.73 6.31 24.63 25.69 24.63 20.85 13.86"/><circle cx="10.15" cy="11.25" r="2.77"/><rect class="cls-1" width="32" height="32"/></symbol><symbol viewBox="0 0 32 32" id="icon-picture"><title>picture</title><path d="M2,3.06V28.94H30V3.06ZM9.15,7.48a2.77,2.77,0,1,1-2.77,2.77A2.77,2.77,0,0,1,9.15,7.48ZM6.31,24.63l5.54-7.9,3.48,3.86,5.52-6.73,4.84,10.77Z"/><rect class="cls-1" width="32" height="32"/></symbol><symbol viewBox="0 0 32 32" id="icon-piggy-bank-o"><title>piggy-bank-o</title><circle cx="9.5" cy="14.51" r="1.5"/><rect x="15.03" y="8.99" width="3.96" height="2.04"/><path d="M25.33,29H22l-.19-.09a6,6,0,0,1-2.68-2.54l-3.58,0a6.07,6.07,0,0,1-2.66,2.52l-.19.09H9.47V25.24L2,20.73v-7.5H4.14c.54-2.74,2.29-4.84,5.33-6.38V3h3l.2.11a4.18,4.18,0,0,1,2,2.5h4.82a10.37,10.37,0,0,1,5.77,19Zm-2.85-1.86h1V23.6l.45-.27A8.45,8.45,0,0,0,28.13,16a8.56,8.56,0,0,0-8.57-8.53H14.23l-1,0-.15-.8A2.72,2.72,0,0,0,12,4.86h-.68V8l-.54.25c-3.12,1.45-4.64,3.3-4.92,6l-.08.84H3.87v4.58l7.46,4.51v2.95h1a4.07,4.07,0,0,0,1.84-2l.23-.58H15l4.74,0,.66,0,.25.62A4,4,0,0,0,22.48,27.14Z"/><rect class="cls-1" width="32" height="32"/></symbol><symbol viewBox="0 0 32 32" id="icon-piggy-bank"><title>piggy-bank</title><path d="M19.81,5.81H14.29l-.4,0A3.85,3.85,0,0,0,12,3H10V6.77A10.2,10.2,0,0,0,4.15,15H2v5.58l8,4.86V29h2a5.36,5.36,0,0,0,2.65-2.81h5.16c.18,0,.35,0,.53,0A5.29,5.29,0,0,0,23,29h2V24.76A10.18,10.18,0,0,0,30,16h0A10.19,10.19,0,0,0,19.81,5.81ZM9.5,15A1.5,1.5,0,1,1,11,13.5,1.5,1.5,0,0,1,9.5,15Zm11.4-5H16.7V7.92h4.2Z"/><rect class="cls-1" width="32" height="32"/></symbol><symbol viewBox="0 0 32 32" id="icon-pin-o"><title>pin-o</title><path d="M16,2h0c-5.18,0-9,3.66-9,8.62C7,14.21,9.54,16.35,11.5,20A82.75,82.75,0,0,1,16,30a85.75,85.75,0,0,1,4.49-10c2-3.74,4.5-5.74,4.5-9.33C25,5.66,21.18,2,16,2Zm2.75,17c-1.05,2-2,4-2.73,5.67C15.27,23,14.33,21,13.26,19c-.66-1.2-1.37-2.24-2-3.17C9.94,13.89,9,12.49,9,10.62a6.42,6.42,0,0,1,1.94-4.71A7.19,7.19,0,0,1,16,4h0c4.06,0,7,2.78,7,6.6,0,1.84-.92,3.2-2.2,5.09C20.17,16.65,19.44,17.72,18.75,19Z"/><circle cx="16.13" cy="11" r="3" transform="translate(5.06 27.08) rotate(-89.76)"/><rect class="cls-1" width="32" height="32"/></symbol><symbol viewBox="0 0 32 32" id="icon-pin"><title>pin</title><path d="M16,2c-5.18,0-9,3.66-9,8.62C7,14.21,9.54,16.35,11.5,20A82.75,82.75,0,0,1,16,30a85.75,85.75,0,0,1,4.49-10c2-3.74,4.5-5.74,4.5-9.33C25,5.66,21.18,2,16,2Zm.14,12a3,3,0,1,1,3-3A3,3,0,0,1,16.13,14Z"/><rect class="cls-1" width="32" height="32"/></symbol><symbol viewBox="0 0 32 32" id="icon-play-o"><title>play-o</title><path d="M16,4A12,12,0,1,1,4,16,12,12,0,0,1,16,4m0-2A14,14,0,1,0,30,16,14,14,0,0,0,16,2Z"/><polygon points="12.94 21 12.94 11 20.94 16 12.94 21"/><rect class="cls-1" width="32" height="32"/></symbol><symbol viewBox="0 0 32 32" id="icon-play"><title>play</title><path d="M16,2A14,14,0,1,0,30,16,14,14,0,0,0,16,2ZM12.94,21V11l8,5Z"/><rect class="cls-1" width="32" height="32"/></symbol><symbol viewBox="0 0 32 32" id="icon-pound-circle-o"><title>pound-circle-o</title><path d="M16,4A12,12,0,1,1,4,16,12,12,0,0,1,16,4m0-2A14,14,0,1,0,30.05,16,14,14,0,0,0,16,2Z"/><path d="M20.92,19.5v2.1H11.78V19.5h.54c2,0,2.94-.92,2.94-1.91a1.47,1.47,0,0,0-.3-.89H11.78V15.3H13.9a3,3,0,0,1-1.34-2.42c0-1.61,1.21-3.09,3.8-3.09s3.95,1.5,4.08,3.41H18.53a2,2,0,0,0-2.18-1.86c-1.24,0-2,.66-2,1.71,0,.64.3,1.24,1.62,2.25h3.57v1.4H17.27a3.92,3.92,0,0,1,.21,1.08,1.66,1.66,0,0,1-1.3,1.72Z"/><rect class="cls-1" width="32" height="32"/></symbol><symbol viewBox="0 0 32 32" id="icon-pound-circle"><title>pound-circle</title><path d="M16,2A14,14,0,1,0,30.05,16,14,14,0,0,0,16,2Zm4.92,19.6H11.78V19.5h.54c2,0,2.94-.92,2.94-1.91a1.47,1.47,0,0,0-.3-.89H11.78V15.3H13.9a3,3,0,0,1-1.34-2.42c0-1.61,1.21-3.09,3.8-3.09s3.95,1.5,4.08,3.41H18.53a2,2,0,0,0-2.18-1.86c-1.24,0-2,.66-2,1.71,0,.64.3,1.24,1.62,2.25h3.57v1.4H17.27a3.92,3.92,0,0,1,.21,1.08,1.66,1.66,0,0,1-1.3,1.72h4.74Z"/><rect class="cls-1" width="32" height="32"/></symbol><symbol viewBox="0 0 32 32" id="icon-pound-note-o"><title>pound-note-o</title><path d="M24.72,4.8a17.3,17.3,0,0,0-6,1.09l-5.36,2A17.3,17.3,0,0,1,7.28,9H2V27.2H7.28a17.3,17.3,0,0,0,6-1.09l5.36-2a17.3,17.3,0,0,1,6-1.09H30V4.8ZM28,21H24.72A19.14,19.14,0,0,0,18,22.22l-5.36,2a15.2,15.2,0,0,1-5.34,1H4V11H7.28A19.14,19.14,0,0,0,14,9.78l5.36-2a15.2,15.2,0,0,1,5.34-1H28Z"/><path d="M16,11.5A4.5,4.5,0,1,0,20.5,16,4.51,4.51,0,0,0,16,11.5Zm0,7A2.5,2.5,0,1,1,18.5,16,2.5,2.5,0,0,1,16,18.5Z"/><rect class="cls-1" width="32" height="32"/></symbol><symbol viewBox="0 0 32 32" id="icon-pound-note"><title>pound-note</title><path d="M24.68,6.24a19.33,19.33,0,0,0-6,1L13.33,8.94a19,19,0,0,1-6,1H2.05V25.76H7.32a19.33,19.33,0,0,0,6-1l5.34-1.75a19,19,0,0,1,6-1H30V6.24ZM16,19.49A3.49,3.49,0,1,1,19.49,16,3.49,3.49,0,0,1,16,19.49Z"/><rect class="cls-1" width="32" height="32"/></symbol><symbol viewBox="0 0 32 32" id="icon-present-o"><title>present-o</title><rect class="cls-1" width="32" height="32"/><path d="M30,16V9H23.22a4.49,4.49,0,0,0,.65-1.4,4.47,4.47,0,0,0-3.48-5.44,4,4,0,0,0-1-.13A3.73,3.73,0,0,0,16,4.59,4.09,4.09,0,0,0,12.46,2a4.19,4.19,0,0,0-1.38.26,4.41,4.41,0,0,0-2.76,5.8A4.06,4.06,0,0,0,8.87,9H2v7H4V30l24,0V16ZM17.55,6.17c.26-1,.79-2.15,1.84-2.15a2.67,2.67,0,0,1,.54.07,2.78,2.78,0,0,1,1.76,1.24,2.25,2.25,0,0,1,.25,1.75A2.72,2.72,0,0,1,19.27,9h-.06a2.71,2.71,0,0,1-.69-.08,1.29,1.29,0,0,1-.95-.57A3,3,0,0,1,17.55,6.17ZM10.2,5.53a2.66,2.66,0,0,1,1.55-1.4A2.22,2.22,0,0,1,12.46,4c1,0,1.66,1.23,2,2a3.14,3.14,0,0,1,.26,2.16c0,.1-.19.41-.85.65a3.08,3.08,0,0,1-1,.18A2.8,2.8,0,0,1,10.17,7.3,2.27,2.27,0,0,1,10.2,5.53Zm9,5.46H28v3L4,14V11ZM6,28V16h8l0,12h4l0-12h8V28Z"/></symbol><symbol viewBox="0 0 32 32" id="icon-present"><title>present</title><rect class="cls-1" width="32" height="32"/><path d="M30,9H23.22a4.28,4.28,0,0,0,.65-1.4,4.47,4.47,0,0,0-3.48-5.44,4,4,0,0,0-1-.13A3.73,3.73,0,0,0,16,4.59,4.09,4.09,0,0,0,12.46,2a4.19,4.19,0,0,0-1.38.26,4.41,4.41,0,0,0-2.76,5.8A4.06,4.06,0,0,0,8.87,9H2v5l28,0ZM17.55,6.17c.26-1,.79-2.15,1.84-2.15a2.67,2.67,0,0,1,.54.07,2.75,2.75,0,0,1,1.76,1.24,2.25,2.25,0,0,1,.25,1.75A2.72,2.72,0,0,1,19.27,9h-.06a2.71,2.71,0,0,1-.69-.08,1.29,1.29,0,0,1-.95-.57A3,3,0,0,1,17.55,6.17ZM10.2,5.53a2.66,2.66,0,0,1,1.55-1.4A2.22,2.22,0,0,1,12.46,4c1,0,1.66,1.23,2,2a3.14,3.14,0,0,1,.26,2.16c0,.1-.18.41-.85.65a3.08,3.08,0,0,1-1,.18A2.81,2.81,0,0,1,10.17,7.3,2.27,2.27,0,0,1,10.2,5.53Z"/><polygon points="17.99 15.99 18.01 29.99 15.17 30 28.01 29.98 28 15.98 17.99 15.99"/><rect x="4" y="16" width="10" height="14"/></symbol><symbol viewBox="0 0 32 32" id="icon-print-o"><title>print-o</title><path d="M30,14a4,4,0,0,0-4-4H24V2H8v8H6a4,4,0,0,0-4,4V25H8v5H24V25h6ZM10,4H22v6H10ZM22,28H10V21H22Zm6-5H24V19H8v4H4V14a2,2,0,0,1,2-2H26a2,2,0,0,1,2,2Z"/><circle cx="24.5" cy="15.5" r="1.5"/><rect class="cls-1" width="32" height="32"/></symbol><symbol viewBox="0 0 32 32" id="icon-print"><title>print</title><path d="M30,14a4,4,0,0,0-4-4H24V2H8v8H6a4,4,0,0,0-4,4V24H8v6H24V24h6ZM10,4H22v6H10ZM22,28H10V21H22Zm3.5-12A1.5,1.5,0,1,1,27,14.5,1.5,1.5,0,0,1,25.5,16Z"/><rect class="cls-1" width="32" height="32"/></symbol><symbol viewBox="0 0 32 32" id="icon-qr-code"><title>qr-code</title><polygon points="5.1 12.73 5.1 4.73 13.1 4.73 13.1 2.73 3.1 2.73 3.1 12.73 5.1 12.73"/><polygon points="5.1 18.73 3.1 18.73 3.1 28.73 13.1 28.73 13.1 26.73 5.1 26.73 5.1 18.73"/><path d="M12.1,8.73v2h-2v-2h2m2-2h-6v6h6v-6Z"/><path d="M22.1,8.73v2h-2v-2h2m2-2h-6v6h6v-6Z"/><path d="M12.1,20.73v2h-2v-2h2m2-2h-6v6h6v-6Z"/><path d="M22.1,20.73v2h-2v-2h2m2-2h-6v6h6v-6Z"/><polygon points="30.1 14.73 2.1 14.73 2.1 16.73 30.1 16.73 30.1 14.73 30.1 14.73"/><rect class="cls-1" width="32" height="32"/><polygon points="27.1 12.73 29.1 12.73 29.1 2.73 19.1 2.73 19.1 4.73 27.1 4.73 27.1 12.73"/><polygon points="27.1 18.73 27.1 26.73 19.1 26.73 19.1 28.73 29.1 28.73 29.1 18.73 27.1 18.73"/></symbol><symbol viewBox="0 0 32 32" id="icon-quarterly-dd-o"><title>quarterly-dd-o</title><path d="M16,2A14,14,0,1,0,30,16,14,14,0,0,0,16,2ZM28,16H17V4.05A12,12,0,0,1,28,16ZM16,28A12,12,0,0,1,15,4.05V18H27.82A12,12,0,0,1,16,28Z"/><rect class="cls-1" width="32" height="32"/></symbol><symbol viewBox="0 0 32 32" id="icon-quarterly-dd"><title>quarterly-dd</title><path d="M17,16H30A14,14,0,0,0,17,2Z"/><path d="M15,18V2A14,14,0,1,0,29.84,18Z"/><rect class="cls-1" width="32" height="32"/></symbol><symbol viewBox="0 0 32 32" id="icon-question-circle-o"><title>question-circle-o</title><path d="M16,4A12,12,0,1,1,4,16,12,12,0,0,1,16,4m0-2A14,14,0,1,0,30,16,14,14,0,0,0,16,2Z"/><rect x="14.6" y="21" width="2.4" height="2"/><path d="M16.06,9c-3.18,0-4.82,1.69-5.06,4.52l2.24.27c.17-1.82,1-2.64,2.8-2.64s2.67.68,2.67,2.1a2.45,2.45,0,0,1-1.57,2.23A3.75,3.75,0,0,0,14.72,19H17a2,2,0,0,1,1.13-1.56l.78-.52A4.22,4.22,0,0,0,21,13.19C21,10.55,19.14,9,16.06,9Z"/><rect class="cls-1" width="32" height="32"/></symbol><symbol viewBox="0 0 32 32" id="icon-question-circle"><title>question-circle</title><path d="M16,2A14,14,0,1,0,30,16,14,14,0,0,0,16,2Zm1,21H14.6V21H17Zm1.92-6.08-.78.52A2,2,0,0,0,17,19H14.72a3.75,3.75,0,0,1,2.42-3.52,2.45,2.45,0,0,0,1.57-2.23c0-1.42-1-2.1-2.67-2.1s-2.63.82-2.8,2.64L11,13.52C11.24,10.69,12.88,9,16.06,9S21,10.55,21,13.19A4.22,4.22,0,0,1,18.92,16.92Z"/><rect class="cls-1" width="32" height="32"/></symbol><symbol viewBox="0 0 32 32" id="icon-quote-o"><title>quote-o</title><path d="M19.75,2H5.5V30h21V8ZM24.5,28H7.5V4h11V9h6Z"/><rect x="9.5" y="17" width="13" height="2"/><rect x="9.5" y="21" width="7" height="2"/><rect x="9.5" y="13" width="13" height="2"/><rect class="cls-1" width="32" height="32"/></symbol><symbol viewBox="0 0 32 32" id="icon-quote"><title>quote</title><path d="M19.75,2H5.5V30h21V8ZM16.5,23h-7V21h7Zm6-4H9.5V17h13Zm0-4H9.5V13h13Zm-4-6V3l7,6Z"/><rect class="cls-1" width="32" height="32"/></symbol><symbol viewBox="0 0 32 32" id="icon-recycle"><title>recycle</title><path d="M29.49,21.34l-3.76-6.09L24,16.31l3.76,6.08a1.38,1.38,0,0,1,0,1.42,1.31,1.31,0,0,1-1.16.69H20V21.6l-4,3.95,4,3.95v-3h6.66A3.37,3.37,0,0,0,29.49,21.34Z"/><path d="M5.34,24.5a1.31,1.31,0,0,1-1.16-.69,1.38,1.38,0,0,1,0-1.42l3.66-5.92L10.47,18l-1.4-5.44L3.64,14l2.5,1.45L2.51,21.34A3.37,3.37,0,0,0,5.34,26.5H14v-2Z"/><path d="M22.57,10.15,18.83,4.09a3.31,3.31,0,0,0-5.66,0L9.3,10.36l1.72,1,3.85-6.23a1.32,1.32,0,0,1,2.26,0l3.74,6.06-2.52,1.57,5.46,1.32L25.05,8.6Z"/><rect class="cls-1" width="32" height="32"/></symbol><symbol viewBox="0 0 32 32" id="icon-remove-o"><title>remove-o</title><path d="M30,7H21.06V2H11.43V7H2v7H6V26a4,4,0,0,0,4,4H22a4,4,0,0,0,4-4V14h4ZM13.43,4h5.63V7H13.43ZM24,26a2,2,0,0,1-2,2H10a2,2,0,0,1-2-2V14H24Zm4-14H4V9H28Z"/><rect x="12" y="17" width="2" height="7"/><rect x="18" y="17" width="2" height="7"/><rect class="cls-1" width="32" height="32"/></symbol><symbol viewBox="0 0 32 32" id="icon-remove"><title>remove</title><path d="M21.06,7V2H11.43V7H2v5H30V7ZM13.43,4h5.63V7H13.43Z"/><path d="M6,14V26a4,4,0,0,0,4,4H22a4,4,0,0,0,4-4V14Zm8,11H12V18h2Zm6,0H18V18h2Z"/><rect class="cls-1" width="32" height="32"/></symbol><symbol viewBox="0 0 32 32" id="icon-renewable"><title>renewable</title><path d="M29.58,2.4S15.42,1.46,9.3,7.71C6.09,11,6.11,15.22,6.86,18.48L18.49,9l.83,1L2.2,27.55l2.15,2.1,5.44-5.56c2.72,1.28,10.41,4.2,15.37-.88C31.28,17,29.58,2.4,29.58,2.4Z"/><rect class="cls-1" width="32" height="32"/></symbol><symbol viewBox="0 0 32 32" id="icon-results"><title>results</title><circle cx="5.01" cy="8.01" r="2.01"/><rect x="9" y="7" width="20" height="2"/><rect x="9" y="15" width="20" height="2"/><rect x="9" y="23" width="20" height="2"/><circle cx="5" cy="16" r="2"/><ellipse cx="5.03" cy="24" rx="2.03" ry="2"/><rect class="cls-1" width="32" height="32"/></symbol><symbol viewBox="0 0 32 32" id="icon-roaming-o"><title>roaming-o</title><path d="M19.79,17.28,21.2,18.7a8.47,8.47,0,0,0,0-11.5L19.79,8.62a6.48,6.48,0,0,1,0,8.66Z"/><path d="M10,7a5.24,5.24,0,0,1,5.46,5.38c0,1.51-.7,2.59-1.78,4.23-.53.82-1.14,1.75-1.71,2.85-.73,1.39-1.39,2.82-2,4.12-.57-1.29-1.23-2.72-2-4.12a32,32,0,0,0-1.67-2.75C5.32,15,4.55,13.87,4.55,12.34A5.32,5.32,0,0,1,6.07,8.48,5.52,5.52,0,0,1,10,7h0m0-2h0a7.21,7.21,0,0,0-7.45,7.39c0,3.08,2.11,4.91,3.73,8A73.12,73.12,0,0,1,10,29a74.32,74.32,0,0,1,3.72-8.62c1.67-3.21,3.72-4.92,3.72-8A7.21,7.21,0,0,0,10,5Z"/><ellipse cx="10.11" cy="12.66" rx="2.48" ry="2.57"/><path d="M23.94,21.43l1.41,1.42a14,14,0,0,0,0-19.8L23.94,4.47a12,12,0,0,1,0,17Z"/><rect class="cls-1" width="32" height="32"/></symbol><symbol viewBox="0 0 32 32" id="icon-roaming"><title>roaming</title><path d="M19.79,17.28,21.2,18.7a8.47,8.47,0,0,0,0-11.5L19.79,8.62a6.48,6.48,0,0,1,0,8.66Z"/><path d="M10,5a7.21,7.21,0,0,0-7.45,7.39c0,3.08,2.11,4.91,3.73,8A73.12,73.12,0,0,1,10,29a74.32,74.32,0,0,1,3.72-8.62c1.67-3.21,3.72-4.92,3.72-8A7.21,7.21,0,0,0,10,5Zm.11,10.29a2.58,2.58,0,1,1,2.48-2.58A2.54,2.54,0,0,1,10.11,15.24Z"/><path d="M23.94,21.43l1.41,1.42a14,14,0,0,0,0-19.8L23.94,4.47a12,12,0,0,1,0,17Z"/><rect class="cls-1" width="32" height="32"/></symbol><symbol viewBox="0 0 32 32" id="icon-save-o"><title>save-o</title><path d="M26,5H23V2H7V5H3V30H29V8ZM9,4H21v8H9ZM27,28H5V7H7v7H23V7h2.17L27,8.83Z"/><rect x="11" y="6" width="2" height="4"/><path d="M16,16a4,4,0,1,0,4,4A4,4,0,0,0,16,16Zm0,6a2,2,0,1,1,2-2A2,2,0,0,1,16,22Z"/><rect class="cls-1" width="32" height="32"/></symbol><symbol viewBox="0 0 32 32" id="icon-save"><title>save</title><rect x="11" y="6" width="2" height="4"/><path d="M26,5H23V2H7V5H3V30H29V8ZM16,24a4,4,0,1,1,4-4A4,4,0,0,1,16,24Zm5-12H9V4H21Z"/><rect class="cls-1" width="32" height="32"/></symbol><symbol viewBox="0 0 32 32" id="icon-share-o"><title>share-o</title><path d="M21,6.85,27.05,13,21,18.48v-3.1l-2,0c-5.79.06-10.65,2-14,5.44C7.07,14.43,12.65,9.67,19,9.6l2,0V6.85M19,2V7.6C9.31,7.7,2.06,16.69,2.06,26.47A17.83,17.83,0,0,0,2.41,30C4,21.91,10.51,17.49,19,17.4V23l11-10L19,2Z"/><rect class="cls-1" width="32" height="32"/></symbol><symbol viewBox="0 0 32 32" id="icon-share"><title>share</title><path d="M19,7.6C9.31,7.7,2.06,16.69,2.06,26.47A17.83,17.83,0,0,0,2.41,30C4,21.91,10.51,17.49,19,17.4V23l11-10L19,2Z"/><rect class="cls-1" width="32" height="32"/></symbol><symbol viewBox="0 0 32 32" id="icon-shield-o"><title>shield-o</title><polygon points="15 10 15 14 11 14 11 16 15 16 15 20 17 20 17 16 21 16 21 14 17 14 17 10 15 10"/><path d="M16,2,5,6l.69,14.13a4,4,0,0,0,1.52,2.95L16,30l8.79-6.92a4,4,0,0,0,1.52-2.95L27,6Zm8.31,18a2,2,0,0,1-.76,1.48L16,27.45,8.45,21.51A2,2,0,0,1,7.69,20L7.07,7.38,16,4.13l8.93,3.25Z"/><rect class="cls-1" width="32" height="32"/></symbol><symbol viewBox="0 0 32 32" id="icon-shield"><title>shield</title><path d="M16,2,5,6l.69,14.13a4,4,0,0,0,1.51,2.95L16,30l8.77-6.92a4,4,0,0,0,1.51-2.95L27,6Zm5,14H17v4H15V16H11V14h4V10h2v4h4Z"/><rect class="cls-1" width="32" height="32"/></symbol><symbol viewBox="0 0 32 32" id="icon-sim-o"><title>sim-o</title><path d="M21.57,2H6V30H26V8.3ZM24,28H8V4H20.53L24,8.93Z"/><rect x="10" y="6" width="2" height="4"/><rect x="14" y="6" width="2" height="4"/><rect x="18" y="6" width="2" height="4"/><rect x="10" y="17" width="12" height="9"/><rect class="cls-1" width="32" height="32"/></symbol><symbol viewBox="0 0 32 32" id="icon-sim"><title>sim</title><path d="M21.57,2H6V30H26V8.3ZM18,6h2v4H18ZM14,6h2v4H14ZM10,6h2v4H10ZM22,26H10V17H22Z"/><rect class="cls-1" width="32" height="32"/></symbol><symbol viewBox="0 0 32 32" id="icon-smiley-o"><title>smiley-o</title><path d="M16,2A14,14,0,1,0,30,16,14,14,0,0,0,16,2Zm0,26A12,12,0,1,1,28,16,12,12,0,0,1,16,28Z"/><path d="M21.45,16A2.45,2.45,0,1,0,19,13.55,2.45,2.45,0,0,0,21.45,16Z"/><path d="M16,22a6.32,6.32,0,0,1-6-4.52l-1.91.6A8.29,8.29,0,0,0,24,18L22,17.45A6.33,6.33,0,0,1,16,22Z"/><path d="M10.45,16A2.45,2.45,0,1,0,8,13.55,2.45,2.45,0,0,0,10.45,16Z"/><rect class="cls-1" width="32" height="32"/></symbol><symbol viewBox="0 0 32 32" id="icon-smiley"><title>smiley</title><path d="M16,2A14,14,0,1,0,30,16,14,14,0,0,0,16,2Zm5.45,9.1A2.45,2.45,0,1,1,19,13.55,2.45,2.45,0,0,1,21.45,11.1Zm-11,0A2.45,2.45,0,1,1,8,13.55,2.45,2.45,0,0,1,10.45,11.1ZM16,25a8.33,8.33,0,0,1-8-5.92l1.91-.6a6.3,6.3,0,0,0,12.09,0L24,19A8.32,8.32,0,0,1,16,25Z"/><rect class="cls-1" width="32" height="32"/></symbol><symbol viewBox="0 0 32 32" id="icon-sms-o"><title>sms-o</title><rect x="8.29" y="23.78" width="4.18" height="2.01"/><polygon points="16.6 18 16.61 27.99 4.01 28 3.99 4.01 9.01 4.01 9.01 2.01 1.99 2.01 2.02 30 18.61 29.99 18.6 18 16.6 18"/><path d="M26.22,4A1.72,1.72,0,0,1,28,5.6V12a2.58,2.58,0,0,1-2.25,2H14.33l-.58.56-.74.72V5.6A1.7,1.7,0,0,1,14.8,4H26.22m0-2H14.8A3.69,3.69,0,0,0,11,5.6V20l4.13-4H25.76C27.84,16,30,14,30,12V5.6A3.71,3.71,0,0,0,26.22,2Z"/><circle cx="20.65" cy="9.5" r="1.5"/><circle cx="25.01" cy="9.5" r="1.5"/><circle cx="16.29" cy="9.5" r="1.5"/><rect class="cls-1" width="32" height="32"/></symbol><symbol viewBox="0 0 32 32" id="icon-sms"><title>sms</title><path d="M17,18v6L4.05,24,4,4H11V2H2l0,28H19V18ZM13,28H8V26h5Z"/><path d="M26.4,2H15.65a3.59,3.59,0,0,0-3.57,3.6V20L16,16H26a4.38,4.38,0,0,0,4-4V5.6A3.6,3.6,0,0,0,26.4,2Zm-9.93,9A1.5,1.5,0,1,1,18,9.5,1.5,1.5,0,0,1,16.47,11Zm5,0A1.5,1.5,0,1,1,23,9.5,1.5,1.5,0,0,1,21.47,11Zm5,0A1.5,1.5,0,1,1,28,9.5,1.5,1.5,0,0,1,26.47,11Z"/><rect class="cls-1" width="32" height="32"/></symbol><symbol viewBox="0 0 32 32" id="icon-sort"><title>sort</title><rect x="15.85" y="7.27" width="14" height="2"/><rect x="15.85" y="13.27" width="11.53" height="2"/><rect x="15.85" y="19.27" width="9.06" height="2"/><rect x="6.84" y="7.27" width="2" height="15.1"/><polygon points="7.86 24.73 2.15 19.03 3.56 17.61 7.86 21.91 12.15 17.61 13.56 19.03 7.86 24.73"/><rect class="cls-1" width="32" height="32"/></symbol><symbol viewBox="0 0 32 32" id="icon-speech-circle"><title>speech-circle</title><path d="M16,2A14,14,0,1,0,30,16,14,14,0,0,0,16,2Zm8,17.29a2.27,2.27,0,0,1-2.29,2.28H12.57L9.14,25V11.42A2.34,2.34,0,0,1,11.39,9H21.75A2.34,2.34,0,0,1,24,11.42Z"/><circle cx="13.14" cy="15.29" r="1.14"/><circle cx="16.57" cy="15.29" r="1.14"/><circle cx="20" cy="15.29" r="1.14"/><rect class="cls-1" width="32" height="32"/></symbol><symbol viewBox="0 0 32 32" id="icon-speech-o"><title>speech-o</title><path d="M25.06,2H6.94A4.09,4.09,0,0,0,3,6.23V30l6-6H25a4,4,0,0,0,4-4V6.23A4.09,4.09,0,0,0,25.06,2ZM27,20a2,2,0,0,1-2,2H8.17l-.58.59L5,25.17V6.23A2.1,2.1,0,0,1,6.94,4H25.06A2.1,2.1,0,0,1,27,6.23Z"/><circle cx="10" cy="13" r="2"/><circle cx="16" cy="13" r="2"/><circle cx="22" cy="13" r="2"/><rect class="cls-1" width="32" height="32"/></symbol><symbol viewBox="0 0 32 32" id="icon-speech"><title>speech</title><path d="M25.06,2H6.94A4.09,4.09,0,0,0,3,6.23V30l6-6H25a4,4,0,0,0,4-4V6.23A4.09,4.09,0,0,0,25.06,2ZM10,15a2,2,0,1,1,2-2A2,2,0,0,1,10,15Zm6,0a2,2,0,1,1,2-2A2,2,0,0,1,16,15Zm6,0a2,2,0,1,1,2-2A2,2,0,0,1,22,15Z"/><rect class="cls-1" width="32" height="32"/></symbol><symbol viewBox="0 0 32 32" id="icon-spinner-rebrand"><title>spinner-rebrand</title><path opacity=".25" d="M16 0a16 16 0 0 0 0 32 16 16 0 0 0 0-32m0 4a12 12 0 0 1 0 24 12 12 0 0 1 0-24"/><path d="M16 0a16 16 0 0 1 16 16h-4A12 12 0 0 0 16 4z"/></symbol><symbol viewBox="0 0 32 32" id="icon-spinner"><title>spinner</title><path opacity=".25" d="M16 0a16 16 0 0 0 0 32 16 16 0 0 0 0-32m0 4a12 12 0 0 1 0 24 12 12 0 0 1 0-24"/><path d="M16 0a16 16 0 0 1 16 16h-4A12 12 0 0 0 16 4z"/></symbol><symbol viewBox="0 0 32 32" id="icon-star-half"><title>star-half</title><polygon points="15.39 24.89 15.39 2.5 11.06 11.39 1.39 12.81 8.39 19.73 6.74 29.5 15.39 24.89"/><rect class="cls-1" width="32" height="32"/></symbol><symbol viewBox="0 0 32 32" id="icon-star"><title>star</title><polygon points="16 2.5 20.33 11.39 30 12.81 23 19.73 24.65 29.5 16 24.89 7.35 29.5 9 19.73 2 12.81 11.67 11.39 16 2.5"/><rect class="cls-1" width="32" height="32"/></symbol><symbol viewBox="0 0 32 32" id="icon-starline-half"><title>starline-half</title><path d="M30,12.81l-9.67-1.42L16,2.5h0l-4.33,8.89L2,12.81H2l3.54,3.5L9,19.73l-.83,4.89L7.35,29.5h0l2.23-1.19L16,24.89l8.65,4.61L23,19.73ZM16.94,23.12l-.94-.5h0V7.07h0l2.53,5.19.46,1,1,.16,5.71.84-4.15,4.1-.74.73.18,1,1,5.76Z"/><rect class="cls-1" width="32" height="32"/></symbol><symbol viewBox="0 0 32 32" id="icon-starline"><title>starline</title><rect class="cls-1" width="32" height="32"/><path d="M16,7.07l2.53,5.19.46,1,1,.16,5.71.84-4.15,4.1-.74.73.18,1,1,5.76-5.06-2.7-.94-.5-.94.5L10,25.82l1-5.76.18-1-.74-.73-4.15-4.1L12,13.37l1-.16.46-1L16,7.07M16,2.5l-4.33,8.89L2,12.81l7,6.92L7.35,29.5,16,24.89l8.65,4.61L23,19.73l7-6.92-9.67-1.42L16,2.5Z"/></symbol><symbol viewBox="0 0 32 32" id="icon-sun-o"><title>sun-o</title><path d="M11.1,9.69,6.81,5.39,5.39,6.81l4.3,4.29A7.84,7.84,0,0,1,11.1,9.69Z"/><path d="M16,8a8.26,8.26,0,0,1,1,.07V2H15V8.07A8.26,8.26,0,0,1,16,8Z"/><path d="M22.31,11.1l4.3-4.29L25.19,5.39,20.9,9.69A7.84,7.84,0,0,1,22.31,11.1Z"/><path d="M23.93,15a7.18,7.18,0,0,1,0,2H30V15Z"/><path d="M8,16a8.26,8.26,0,0,1,.07-1H2v2H8.07A8.26,8.26,0,0,1,8,16Z"/><path d="M20.9,22.31l4.29,4.3,1.42-1.42-4.3-4.29A7.84,7.84,0,0,1,20.9,22.31Z"/><path d="M16,24a8.26,8.26,0,0,1-1-.07V30h2V23.93A8.26,8.26,0,0,1,16,24Z"/><path d="M9.69,20.9l-4.3,4.29,1.42,1.42,4.29-4.3A7.84,7.84,0,0,1,9.69,20.9Z"/><path d="M16,12a4,4,0,1,1-4,4,4,4,0,0,1,4-4m0-2a6,6,0,1,0,6,6,6,6,0,0,0-6-6Z"/><rect class="cls-1" width="32" height="32"/></symbol><symbol viewBox="0 0 32 32" id="icon-sun"><title>sun</title><path d="M11.1,9.69,6.81,5.39,5.39,6.81l4.3,4.29A7.84,7.84,0,0,1,11.1,9.69Z"/><path d="M16,8a8.26,8.26,0,0,1,1,.07V2H15V8.07A8.26,8.26,0,0,1,16,8Z"/><path d="M22.31,11.1l4.3-4.29L25.19,5.39,20.9,9.69A7.84,7.84,0,0,1,22.31,11.1Z"/><path d="M23.93,15a7.18,7.18,0,0,1,0,2H30V15Z"/><path d="M8,16a8.26,8.26,0,0,1,.07-1H2v2H8.07A8.26,8.26,0,0,1,8,16Z"/><path d="M20.9,22.31l4.29,4.3,1.42-1.42-4.3-4.29A7.84,7.84,0,0,1,20.9,22.31Z"/><path d="M16,24a8.26,8.26,0,0,1-1-.07V30h2V23.93A8.26,8.26,0,0,1,16,24Z"/><path d="M9.69,20.9l-4.3,4.29,1.42,1.42,4.29-4.3A7.84,7.84,0,0,1,9.69,20.9Z"/><path d="M16,10a6,6,0,1,0,6,6,6,6,0,0,0-6-6Z"/><rect class="cls-1" width="32" height="32"/></symbol><symbol viewBox="0 0 32 32" id="icon-talk-o"><title>talk-o</title><path d="M26,10H24v2h2a2,2,0,0,1,2,2V25.17l-.58-.58L26.82,24H14a2,2,0,0,1-2-2V20H10v2a4,4,0,0,0,4,4H26l4,4V14A4,4,0,0,0,26,10Z"/><path d="M22,14V6a4,4,0,0,0-4-4H6A4,4,0,0,0,2,6V22l4-4H18A4,4,0,0,0,22,14ZM5.16,16l-.58.59L4,17.16V6A2,2,0,0,1,6,4H18a2,2,0,0,1,2,2v8a2,2,0,0,1-2,2H5.16Z"/><path d="M7.61,8.57a1.5,1.5,0,1,0,1.5,1.49A1.5,1.5,0,0,0,7.61,8.57Z"/><path d="M12.12,8.57a1.5,1.5,0,1,0,1.5,1.49A1.5,1.5,0,0,0,12.12,8.57Z"/><path d="M16.63,8.57a1.5,1.5,0,1,0,1.51,1.49A1.5,1.5,0,0,0,16.63,8.57Z"/><rect class="cls-1" width="32" height="32"/></symbol><symbol viewBox="0 0 32 32" id="icon-talk"><title>talk</title><path d="M26,10H25v4a6.14,6.14,0,0,1-6.18,6H10v2a4,4,0,0,0,4,4H26l4,4V14A4,4,0,0,0,26,10Z"/><path d="M18.81,2H6.19A4.09,4.09,0,0,0,2,6V22l4.18-4h12.6A4.14,4.14,0,0,0,23,14V6A4.1,4.1,0,0,0,18.81,2ZM7.49,12A1.49,1.49,0,1,1,9,10.49,1.5,1.5,0,0,1,7.49,12Zm5,0A1.49,1.49,0,1,1,14,10.49,1.5,1.5,0,0,1,12.49,12Zm5,0A1.49,1.49,0,1,1,19,10.49,1.5,1.5,0,0,1,17.49,12Z"/><rect class="cls-1" width="32" height="32"/></symbol><symbol viewBox="0 0 32 32" id="icon-tick-circle-o"><title>tick-circle-o</title><path d="M16,4A12,12,0,1,1,4,16,12,12,0,0,1,16,4m0-2A14,14,0,1,0,30,16,14,14,0,0,0,16,2Z"/><polygon points="14.64 20.78 9.69 15.82 11.1 14.4 14.64 17.95 21.52 11.05 22.94 12.46 14.64 20.78"/><rect class="cls-1" width="32" height="32"/></symbol><symbol viewBox="0 0 32 32" id="icon-tick-circle"><title>tick-circle</title><path d="M16,2A14,14,0,1,0,30,16,14,14,0,0,0,16,2ZM14.32,20.86l-5-5,1.42-1.41L14.32,18l6.89-6.89,1.42,1.41Z"/><rect class="cls-1" width="32" height="32"/></symbol><symbol viewBox="0 0 32 32" id="icon-tick"><title>tick</title><polygon points="12.67 24.62 3.53 15.46 4.95 14.05 12.67 21.79 27.05 7.38 28.47 8.79 12.67 24.62"/><rect class="cls-1" width="32" height="32"/></symbol><symbol viewBox="0 0 32 32" id="icon-tracker-o"><title>tracker-o</title><path d="M21.79,14.45A6.1,6.1,0,0,1,22,16a6,6,0,1,1-6-6,6.1,6.1,0,0,1,1.55.21l1.57-1.58A8.08,8.08,0,0,0,16,8a8,8,0,1,0,8,8,8.08,8.08,0,0,0-.63-3.12Z"/><path d="M28.71,4.71,27.29,3.29l-10,10a3,3,0,1,0,1.41,1.41ZM16,17a1,1,0,1,1,1-1A1,1,0,0,1,16,17Z"/><path d="M26.33,9.92a12,12,0,1,1-4.25-4.25l1.46-1.45a14,14,0,1,0,4.24,4.24Z"/><rect class="cls-1" width="32" height="32"/></symbol><symbol viewBox="0 0 32 32" id="icon-tracker"><title>tracker</title><circle cx="16" cy="16" r="1"/><path d="M26.57,6.84,18.7,14.71a3,3,0,1,1-1.41-1.41l7.87-7.87a14,14,0,1,0,1.41,1.41ZM16,25A9,9,0,0,1,16,7a8.8,8.8,0,0,1,3.87.89L18.34,9.41a7,7,0,1,0,4.25,4.25l1.52-1.53A8.8,8.8,0,0,1,25,16,9,9,0,0,1,16,25Z"/><rect class="cls-1" width="32" height="32"/></symbol><symbol viewBox="0 0 32 32" id="icon-truck-o"><title>truck-o</title><path d="M30,15.15,30,15,24.39,7.5H18v-2H2V22.64H6A2.2,2.2,0,0,0,6,23a3.5,3.5,0,0,0,7,0,2.2,2.2,0,0,0,0-.36H19A2.2,2.2,0,0,0,19,23a3.5,3.5,0,0,0,7,0,2.2,2.2,0,0,0,0-.36h4ZM9.5,24.5A1.5,1.5,0,1,1,11,23,1.5,1.5,0,0,1,9.5,24.5ZM16,20.64H12.07a3.47,3.47,0,0,0-5.14,0H4V7.5H16Zm6.5,3.86A1.5,1.5,0,1,1,24,23,1.5,1.5,0,0,1,22.5,24.5ZM28,20.64H25.07a3.47,3.47,0,0,0-5.14,0H18V9.5h5.38L28,15.68Z"/><polygon points="19 10.5 19 15.5 26 15.5 22.54 10.5 19 10.5"/><rect class="cls-1" width="32" height="32"/></symbol><symbol viewBox="0 0 32 32" id="icon-truck"><title>truck</title><path d="M17,5.5H2V23H6a3.5,3.5,0,0,0,7,0h4Zm-7.5,19A1.5,1.5,0,1,1,11,23,1.5,1.5,0,0,1,9.47,24.5Z"/><path d="M30,15.5h0l-4.9-8h-7V23H20a3.5,3.5,0,0,0,7,0h3Zm-6.5,9A1.5,1.5,0,1,1,25,23,1.5,1.5,0,0,1,23.47,24.5Zm-3.28-9.18V9.73h3.5l3.41,5.59Z"/><rect class="cls-1" width="32" height="32"/></symbol><symbol viewBox="0 0 32 32" id="icon-tv-o"><title>tv-o</title><rect class="cls-1" width="32" height="32"/><path d="M30,4H2V23h8.51l-2,5h15l-2-5H30ZM20.53,26h-9l1.2-3h6.66ZM28,21H4V6H28Z"/><circle cx="25.01" cy="18" r="1"/></symbol><symbol viewBox="0 0 32 32" id="icon-tv"><title>tv</title><rect class="cls-1" width="32" height="32"/><polygon points="10.85 24 8.28 28.5 23.72 28.5 21.15 24 10.85 24"/><path d="M2,3.5v19H30V3.5Zm25,17a1,1,0,1,1,1-1A1,1,0,0,1,27,20.5Z"/></symbol><symbol viewBox="0 0 32 32" id="icon-twitter-brand"><title>twitter-brand</title><path d="M30,7.3a11.11,11.11,0,0,1-3.31.9A5.72,5.72,0,0,0,29.25,5a11.53,11.53,0,0,1-3.65,1.4,5.76,5.76,0,0,0-9.81,5.25,16.38,16.38,0,0,1-11.87-6A5.78,5.78,0,0,0,5.7,13.34a5.71,5.71,0,0,1-2.6-.72,5.76,5.76,0,0,0,4.62,5.71,5.67,5.67,0,0,1-2.6.1,5.75,5.75,0,0,0,5.37,4A11.56,11.56,0,0,1,2,24.82,16.32,16.32,0,0,0,10.8,27.4,16.29,16.29,0,0,0,27.16,10.28,11.78,11.78,0,0,0,30,7.3Z"/><rect class="cls-1" width="32" height="32"/></symbol><symbol viewBox="0 0 32 32" id="icon-twitter-circle"><title>twitter-circle</title><path d="M16,2A14,14,0,1,0,30,16,14,14,0,0,0,16,2Zm7.08,11.25A9.52,9.52,0,0,1,8.42,21.71a6.76,6.76,0,0,0,5-1.38A3.35,3.35,0,0,1,10.25,18a3.33,3.33,0,0,0,1.51-.06,3.36,3.36,0,0,1-2.69-3.33,3.29,3.29,0,0,0,1.52.42,3.36,3.36,0,0,1-1-4.47,9.51,9.51,0,0,0,6.91,3.5A3.35,3.35,0,0,1,22.17,11a6.86,6.86,0,0,0,2.13-.81A3.35,3.35,0,0,1,22.83,12a6.9,6.9,0,0,0,1.92-.52A6.87,6.87,0,0,1,23.08,13.25Z"/><rect class="cls-1" width="32" height="32"/></symbol><symbol viewBox="0 0 32 32" id="icon-twitter"><title>twitter</title><path d="M16 0C7.163 0 0 7.163 0 16s7.163 16 16 16 16-7.163 16-16S24.837 0 16 0zm8.142 12.324c.008.168.01.337.01.508 0 5.185-3.946 11.164-11.163 11.164-2.22 0-4.28-.65-6.02-1.763.3.036.62.055.93.055 1.83 0 3.53-.627 4.87-1.68-1.72-.032-3.17-1.166-3.67-2.725.24.046.482.07.74.07.353 0 .7-.048 1.03-.138-1.798-.36-3.15-1.946-3.15-3.847v-.05c.53.295 1.133.47 1.776.492-1.05-.704-1.745-1.905-1.745-3.266 0-.72.195-1.393.53-1.973 1.937 2.38 4.828 3.94 8.09 4.1-.067-.28-.1-.58-.1-.89 0-2.16 1.755-3.92 3.92-3.92 1.13 0 2.15.48 2.865 1.24.893-.17 1.732-.5 2.49-.95-.293.92-.915 1.69-1.725 2.17.793-.09 1.55-.3 2.25-.61-.52.79-1.186 1.48-1.953 2.03z"/></symbol><symbol viewBox="0 0 32 32" id="icon-unlock-o"><title>unlock-o</title><rect class="cls-1" width="32" height="32"/><rect x="14.98" y="20.99" width="2" height="4"/><path d="M27,15H11V8.59A4.61,4.61,0,0,1,15.58,4h.81A4.6,4.6,0,0,1,21,8.58V11h2V8.58A6.59,6.59,0,0,0,16.39,2h-.82A6.6,6.6,0,0,0,9,8.59V15H5V30l22,0ZM7,28V17H25V28Z"/></symbol><symbol viewBox="0 0 32 32" id="icon-unlock"><title>unlock</title><path d="M27,15,11,15V8.59A4.61,4.61,0,0,1,15.58,4h.81A4.6,4.6,0,0,1,21,8.58V11h2V8.58A6.59,6.59,0,0,0,16.39,2h-.82A6.6,6.6,0,0,0,9,8.59V15H5V30l22,0ZM15,25V21h2v4Z"/></symbol><symbol viewBox="0 0 32 32" id="icon-upload-o"><title>upload-o</title><path d="M24.39,13.66h0a4.93,4.93,0,0,0-.55,0A7.71,7.71,0,0,0,16.16,6.5h0a7.69,7.69,0,0,0-7.67,7.26,5.14,5.14,0,0,0-.88-.08h0A5.77,5.77,0,0,0,2,19.59,5.76,5.76,0,0,0,7.6,25.5H24.4A5.78,5.78,0,0,0,30,19.57,5.77,5.77,0,0,0,24.39,13.66Zm0,9.83H17V18.12l3.61,3,1.28-1.54L16,14.67,10.11,19.6l1.28,1.54,3.61-3v5.37H7.61A3.77,3.77,0,0,1,4,19.59a3.78,3.78,0,0,1,3.61-3.91,2.87,2.87,0,0,1,.55.05l2.2.37.13-2.23A5.69,5.69,0,0,1,16.16,8.5h0a5.71,5.71,0,0,1,5.68,5.32L22,15.9,24,15.68l.35,0A3.78,3.78,0,0,1,28,19.57,3.79,3.79,0,0,1,24.39,23.49Z"/><rect class="cls-1" width="32" height="32"/></symbol><symbol viewBox="0 0 32 32" id="icon-upload"><title>upload</title><path d="M24.39,13.66a4.93,4.93,0,0,0-.55,0,7.69,7.69,0,0,0-15.35.07,5.17,5.17,0,0,0-.89-.08A5.77,5.77,0,0,0,2,19.59,5.76,5.76,0,0,0,7.6,25.5H15V18.12l-3.61,3L10.11,19.6,16,14.67l5.89,4.93-1.28,1.54-3.61-3v7.37h7.4A5.78,5.78,0,0,0,30,19.57,5.77,5.77,0,0,0,24.39,13.66Z"/><rect class="cls-1" width="32" height="32"/></symbol><symbol viewBox="0 0 32 32" id="icon-ustyle"><title>ustyle</title><path fill="#548DCA" d="M15.1 14.1l-4.2 4.4 2.5.3"/><path fill="#437CBE" d="M15.1 14.1l1.8 5.2-3.5-.5"/><path fill="#4983C3" d="M15.1 14.1l1.8-1.1v6.3"/><path fill="#437CBE" d="M16.9 13l3.3 2.9-3.3 3.4"/><path fill="#568FCB" d="M16.9 13l3-2.4.3 5.3"/><path fill="#9BC6EB" d="M19.9 10.6l1.7 7.4-1.4-2.1"/><path fill="#68A0D6" d="M21.6 18l-4.7 1.3 3.3-3.4"/><path fill="#80B2E0" d="M21.6 18v6.4l-2.7-1.9"/><path fill="#5A94CE" d="M18.9 22.5l-2-3.2 4.7-1.3"/><path fill="#679FD6" d="M16.9 19.3l-4.3 8.2 3.3-1.2"/><path fill="#558FCB" d="M16.9 19.3l-1 7 3-3.8"/><path fill="#8FBDE6" d="M18.9 22.5l-1.7 5-1.3-1.2"/><path fill="#7DB1E0" d="M18.9 22.5l2.7 1.9-4.4 3.1"/><path fill="#417CBE" d="M16.9 19.3l-3.5-.5-3.2 6.9"/><path fill="#3D73B8" d="M16.9 19.3l-6.7 6.4 2.4 1.8"/><path fill="#558FCB" d="M10.9 18.5l-.7 7.2 3.2-6.9"/><path fill="#548DCA" d="M10.9 18.5L8 26.6l2.2-.9"/><path fill="#427BBD" d="M8 26.6l.7 3 1.5-3.9"/><path fill="#3D73B8" d="M10.2 25.7l.6 4.4-2.1-.5"/><path fill="#386FB4" d="M10.2 25.7l2.4 1.8-1.8 2.6"/><path fill="#427BBD" d="M12.6 27.5l-1.8 2.6 2.7-.4"/><path fill="#649ED5" d="M12.6 27.5l3.3-1.2-2.4 3.4"/><path fill="#87B8E4" d="M15.9 26.3l-.8 3-1.6.4"/><path fill="#93C1E8" d="M15.9 26.3l1.3 1.2-2.1 1.8"/><path fill="#5B95CF" d="M8.7 29.6l2 2.4.1-1.9"/><path fill="#568FCB" d="M10.8 30.1l2.7-.4-.8 2.1"/><path fill="#5E98D1" d="M10.8 30.1l-.1 1.9 2-.2"/><path fill="#8DBCE6" d="M12.7 31.8l2.4-2.5-1.6.4"/><path fill="#90BDE6" d="M12.7 31.8l1.4-.2 1-2.3"/><path fill="#A2CAEC" d="M14.1 31.6l1.3-2.1-.3-.2"/><path fill="#A1C9EC" d="M17.2 27.5l-1.8 2-.3-.2"/><path fill="#84B6E2" d="M10.7 32l-1.2-1-.8-1.4"/><path fill="#82B3E1" d="M8 26.6l.3 2.1.4.9"/><path fill="#558FCB" d="M10.9 18.5l3.6-5.7.6 1.3"/><path fill="#5B95CF" d="M14.5 12.8L10.8 15l.1 3.5"/><path fill="#72A9DB" d="M10.8 15l3.6-3.9.1 1.7"/><path fill="#5894CF" d="M19.9 10.6l-3.8.8.8 1.6"/><path fill="#7AAEDF" d="M19.9 10.6l-1.4-1.7-2.4 2.5"/><path fill="#95C0E7" d="M18.5 8.9l-3.4 1.4-.7.8 1.7.3"/><path fill="#70A8DB" d="M18.5 8.9l-4.7-3 1.3 4.4"/><path fill="#629DD5" d="M18.5 8.9l5.4-2.7-4 4.4"/><path fill="#99D1F3" d="M23.9 6.2L21 10l-1.1.6"/><path fill="#599BD4" d="M23.9 6.2l-1.6 5.3L21 10"/><path fill="#7FBBE7" d="M22.3 11.5l-2.4-.9L21 10"/><path fill="#78AEDE" d="M19.9 10.6l2.4.9-.7 6.5"/><path fill="#92C1E8" d="M22.3 11.5l1 5.2-1.7 1.3"/><path fill="#A1CAED" d="M23.3 16.7l-.3 4.8-1.4-3.5"/><path fill="#90BDE6" d="M21.6 18l1.4 3.5-1.4 2.9"/><path fill="#9BC6EB" d="M26.3 15.8l-3 .9 3.6 4"/><path fill="#95C1E8" d="M26.9 20.7l-3.9.8.3-4.8"/><path fill="#9CC6EA" d="M26.9 20.7l-.9 4.2-3-3.4"/><path fill="#93C1E8" d="M23 21.5l3 3.4-2.3 2.1m-.7-5.5l.7 5.5-2-3"/><path fill="#91BFE7" d="M21.4 24.5l2.3 2.5-2-3-.1.4"/><path fill="#98C4EA" d="M23.3 16.7l3-.9-3.8-3.4"/><path fill="#AFD3F0" d="M26.3 15.8l-2.6-4.4-1.2 1"/><path fill="#ABD0EF" d="M23.7 11.4l-1.3-.2-.1.3.2.9"/><path fill="#4E5861" d="M14.7 8.9l-.8 1.5 3 2.6"/><path fill="#020304" d="M7.6 0l1.5 3.5 2.2 3.9 2.7 3-1.5-3.6-2.8-3.4"/><path fill="#3F4040" d="M7.6 0l2.5 2.8 2.4 4-2.8-3.4"/><path fill="#111E2E" d="M12.6 10.3l2.5 3.9-1.1-3.8h-.2"/><path fill="#1B2837" d="M11.3 7.4l1.3 2.9 1.4.1"/><path fill="#585D61" d="M14.7 8.9l-2.2-2.1 1.5 3.6"/><path fill="#848687" d="M10.1 2.8l2.2 3.3 2.4 2.8-2.2-2.1"/><path fill="#183553" d="M14 10.4l2.9 2.6-1.8 1.2-1.1-3.8"/><path fill="#8B9DB0" d="M15.1 9.7l1 1.6.8 1.7-1-1.8"/></symbol><symbol viewBox="0 0 32 32" id="icon-uswitch"><title>uswitch</title><path d="M8.31 17.123V4.316H0V16.83c0 13.013 15.888 19.498 25.126 10.314-7.58 3.768-16.55-1.536-16.816-10.02zM25.174.553L18.447 7.74h2.572v9.433c0 4.06-3.94 7.48-8.61 6.06 5.71 6.745 16.91 2.87 16.91-6.06V7.738H32L25.174.553z"/></symbol><symbol viewBox="0 0 32 32" id="icon-variable"><title>variable</title><polygon points="2.68 15.07 9.75 8.04 16.82 15.07 15.41 16.49 10.75 11.85 10.75 26.72 8.75 26.72 8.75 11.86 4.09 16.49 2.68 15.07"/><polygon points="20.7 23.31 20.7 8.72 22.7 8.72 22.7 23.31 27.36 18.68 28.77 20.1 21.69 27.13 14.63 20.1 16.04 18.68 20.7 23.31"/><rect class="cls-1" width="32" height="32"/></symbol><symbol viewBox="0 0 32 32" id="icon-video-o"><title>video-o</title><path d="M30,9.5l-7,2.42V6.5l-21,0,0,19,21,0V21l7,2.47ZM28,20.68l-4.35-1.53L21,18.21v5.27l-17,0v-15l17,0v6.23l2.66-.92L28,12.31Z"/><polygon points="10 20.5 17 15.5 10 11.5 10 20.5"/><rect class="cls-1" width="32" height="32"/></symbol><symbol viewBox="0 0 32 32" id="icon-video"><title>video</title><path d="M30,9.5l-7,2.42V6.5l-21,0,0,19,21,0V21l7,2.47Zm-20,11v-9l7,4Z"/><rect class="cls-1" width="32" height="32"/></symbol><symbol viewBox="0 0 32 32" id="icon-warning-circle-o"><title>warning-circle-o</title><path d="M16,2A14,14,0,1,0,30,16,14,14,0,0,0,16,2Zm0,26A12,12,0,1,1,28,16,12,12,0,0,1,16,28Z"/><polygon points="15.07 16 17.06 16 18 10 14 10 15.07 16"/><circle cx="16" cy="20" r="2"/><rect class="cls-1" width="32" height="32"/></symbol><symbol viewBox="0 0 32 32" id="icon-warning-circle"><title>warning-circle</title><path d="M16,2A14,14,0,1,0,30,16,14,14,0,0,0,16,2Zm0,20a2,2,0,1,1,2-2A2,2,0,0,1,16,22Zm1.06-6h-2L14,10h4Z"/><rect class="cls-1" width="32" height="32"/></symbol><symbol viewBox="0 0 32 32" id="icon-warning-o"><title>warning-o</title><path d="M16,8,26.49,26h-21L16,8m0-4L2,28H30L16,4Z"/><polygon points="13.96 14 17.96 14 16.94 20 14.84 20 13.96 14"/><circle cx="15.97" cy="23" r="2"/><rect class="cls-1" width="32" height="32"/></symbol><symbol viewBox="0 0 32 32" id="icon-warning"><title>warning</title><path d="M16,4,2,28H30Zm2,9-1,6h-2.1l-1-6ZM16,25a2,2,0,1,1,2-2A2,2,0,0,1,16,25Z"/><rect class="cls-1" width="32" height="32"/></symbol><symbol viewBox="0 0 32 32" id="icon-wifi"><title>wifi</title><path d="M16,22.57a2.08,2.08,0,1,0,2.08,2.08A2.08,2.08,0,0,0,16,22.57Z"/><path d="M16,11.13A13.41,13.41,0,0,0,5.75,15.89L7.2,17.28a11.41,11.41,0,0,1,17.6,0l1.45-1.39A13.41,13.41,0,0,0,16,11.13Z"/><path d="M16,5.27A19.23,19.23,0,0,0,1.52,11.84L3,13.23a17.22,17.22,0,0,1,26.06,0l1.45-1.39A19.23,19.23,0,0,0,16,5.27Z"/><path d="M16,16.73a7.85,7.85,0,0,0-6.19,3l1.46,1.4a5.8,5.8,0,0,1,9.46,0l1.46-1.4A7.85,7.85,0,0,0,16,16.73Z"/><rect class="cls-1" width="32" height="32"/></symbol><symbol viewBox="0 0 32 32" id="icon-wiki-o"><title>wiki-o</title><rect class="cls-1" width="32" height="32"/><rect x="18" y="8.95" width="8" height="5.04"/><path d="M28,6V23.9H22.43A10.37,10.37,0,0,0,16.06,26a8.32,8.32,0,0,0-5.42-2.07H4V6h8.08a2.4,2.4,0,0,1,1.64.65l.08.07.9.77h2.61l.89-.77.08-.07A2.41,2.41,0,0,1,19.93,6H28m2-2H19.93a4.33,4.33,0,0,0-3,1.21L16,6l-.89-.77a4.37,4.37,0,0,0-3-1.21H2V25.9h8.64A6.2,6.2,0,0,1,15.24,28h1.54a8.07,8.07,0,0,1,5.65-2.09H30V4Z"/><rect x="6" y="8.99" width="8" height="2"/><rect x="6" y="12.99" width="8" height="2"/><rect x="6" y="16.99" width="5" height="2"/></symbol><symbol viewBox="0 0 32 32" id="icon-wiki"><title>wiki</title><rect class="cls-1" width="32" height="32"/><path d="M19.93,4a4.33,4.33,0,0,0-3,1.21L16,6l-.89-.77a4.37,4.37,0,0,0-3-1.21H2V25.9h8.64A6.2,6.2,0,0,1,15.24,28h1.54a8.07,8.07,0,0,1,5.65-2.09H30V4ZM10,19H5V17h5Zm3-4H5V13h8Zm0-4H5V9h8Zm14,3H19V9h8Z"/></symbol><symbol viewBox="0 0 32 32" id="icon-xml-o"><title>xml-o</title><path d="M27,14v9H11V14H27m2-2H9V25H29V12Z"/><polygon points="16.43 15.95 15.04 15.95 14.49 16.88 14.23 17.41 13.96 16.87 13.43 15.95 12.02 15.95 13.52 18.18 11.85 20.68 13.3 20.68 13.98 19.52 14.21 19.05 14.43 19.52 15.1 20.68 16.55 20.68 14.91 18.19 16.43 15.95"/><polygon points="19.74 18.19 19.54 19.15 19.34 18.19 18.76 15.95 17.08 15.95 17.08 20.68 18.23 20.68 18.23 18.8 18.14 17.07 18.43 18.34 19.03 20.68 20.06 20.68 20.66 18.36 20.96 17.06 20.86 18.8 20.86 20.68 21.99 20.68 21.99 15.95 20.31 15.95 19.74 18.19"/><polygon points="24.05 19.6 24.05 15.95 22.81 15.95 22.81 20.68 26.24 20.68 26.24 19.6 24.05 19.6"/><polygon points="22 24 22 28 5 28 5 4 16 4 16 9 22 9 22 13.02 24 13.02 24 8 17.25 2 3 2 3 30 24 30 24 24 22 24"/><rect class="cls-1" width="32" height="32"/></symbol><symbol viewBox="0 0 32 32" id="icon-xml"><title>xml</title><path d="M29.5,12.47h-5v-4l-6.75-6H3.5v28h21v-5h5Zm-13-9,7,6h-7Zm11,20h-16v-9h16Z"/><path d="M16.86,21.13H15.41L14.75,20l-.23-.47-.23.47-.68,1.16H12.16l1.67-2.5-1.5-2.23h1.41l.53.92.27.54.26-.54.55-.92h1.39l-1.52,2.24Z"/><path d="M22.3,16.4v4.73H21.17V19.25l.1-1.74L21,18.81l-.6,2.32h-1l-.6-2.34-.29-1.27.09,1.73v1.88H17.4V16.4h1.67l.58,2.24.2,1,.2-1,.57-2.24Z"/><path d="M26.55,20.05v1.08H23.12V16.4h1.24v3.65Z"/><rect class="cls-1" width="32" height="32"/></symbol></svg>