<?xml version="1.0" standalone="no"?>
<!DOCTYPE svg PUBLIC "-//W3C//DTD SVG 20010904//EN"
 "http://www.w3.org/TR/2001/REC-SVG-20010904/DTD/svg10.dtd">
<svg version="1.0" xmlns="http://www.w3.org/2000/svg"
 width="16.000000pt" height="16.000000pt" viewBox="0 0 16.000000 16.000000"
 preserveAspectRatio="xMidYMid meet">
<metadata>
Created by potrace 1.11, written by Peter Selinger 2001-2013
</metadata>
<g transform="translate(0.000000,16.000000) scale(0.002286,-0.002286)"
fill="#000000" stroke="none">
<path d="M1670 6986 c0 -4 63 -152 90 -211 5 -11 59 -138 120 -281 78 -185
143 -318 221 -454 60 -106 109 -194 109 -195 0 -1 29 -53 65 -115 36 -62 65
-114 65 -116 0 -1 28 -52 63 -111 61 -105 80 -142 113 -220 9 -21 19 -45 24
-54 5 -9 54 -119 110 -245 71 -160 126 -267 183 -357 45 -70 87 -135 92 -145
6 -9 13 -19 16 -22 3 -3 14 -20 24 -37 l19 -33 -39 -41 c-48 -50 -53 -55 -176
-189 -53 -58 -166 -181 -252 -274 l-155 -169 3 -96 c5 -138 16 -534 17 -611 1
-55 -8 -90 -56 -225 -32 -88 -64 -176 -71 -195 -20 -51 -78 -214 -200 -555
-58 -165 -117 -329 -130 -365 -175 -479 -177 -486 -162 -575 3 -22 13 -89 22
-150 8 -60 19 -137 24 -170 9 -60 92 -260 118 -281 7 -6 10 -13 7 -16 -3 -3
11 -31 30 -61 20 -31 36 -58 36 -60 0 -3 17 -35 39 -71 32 -55 62 -86 171
-177 129 -107 133 -109 173 -105 23 3 71 8 107 11 106 10 163 15 205 20 22 3
63 7 90 10 28 3 61 8 75 10 14 2 61 9 105 15 109 16 118 18 124 28 3 5 69 109
145 233 77 123 157 242 177 264 21 22 46 50 57 63 30 34 174 194 195 214 10
10 15 24 11 30 -4 6 -3 8 3 5 12 -8 46 27 36 36 -3 4 0 7 7 7 7 0 20 8 29 18
9 11 51 43 93 73 86 60 487 342 700 492 75 53 140 97 143 97 4 0 12 -6 18 -13
30 -31 291 -315 351 -381 81 -89 129 -137 136 -134 5 2 52 44 105 93 54 50
106 97 115 105 9 8 59 54 111 101 52 48 108 98 126 113 17 15 36 41 42 59 9
26 86 382 177 812 20 96 19 78 5 195 -7 52 -14 113 -16 135 -7 61 -16 137 -20
165 -3 14 -7 48 -10 75 -2 28 -7 59 -9 70 -2 12 -7 50 -11 85 -3 36 -8 79 -10
95 -2 17 -7 57 -10 90 -3 33 -8 67 -10 75 -2 8 -6 40 -10 71 -10 92 -14 108
-58 181 -12 20 -65 110 -118 200 -265 451 -363 615 -380 640 -10 15 -19 32
-19 38 0 5 -12 10 -27 11 -16 0 -37 2 -48 5 -11 2 -51 8 -90 14 -115 17 -124
19 -120 39 3 16 91 311 165 551 16 52 58 190 93 306 l63 211 -35 -14 c-20 -9
-282 -139 -583 -289 -301 -151 -553 -274 -559 -274 -7 0 -46 22 -88 48 -42 27
-264 169 -494 316 -230 147 -425 270 -433 273 -9 3 -13 0 -10 -8 7 -23 33
-109 55 -184 17 -59 109 -370 128 -429 5 -18 -11 -2 -83 84 -102 120 -401 468
-411 478 -6 7 -74 106 -150 220 -76 114 -142 212 -148 218 -5 7 -22 33 -38 58
-17 29 -32 44 -39 40 -7 -4 -8 -3 -4 4 7 12 -5 41 -27 64 -7 7 -31 42 -54 78
-24 36 -51 75 -60 85 -10 11 -47 54 -83 95 -36 41 -70 79 -76 85 -7 5 -53 57
-105 115 -130 147 -131 148 -164 184 -16 18 -45 49 -62 70 -18 20 -33 34 -33
32z m3254 -2692 c3 -8 2 -12 -4 -9 -6 3 -10 10 -10 16 0 14 7 11 14 -7z m3
-46 c-3 -8 -6 -5 -6 6 -1 11 2 17 5 13 3 -3 4 -12 1 -19z m40 -210 c-3 -8 -6
-5 -6 6 -1 11 2 17 5 13 3 -3 4 -12 1 -19z"/>
</g>
</svg>
