<?xml version="1.0" encoding="utf-8"?>
<!-- Generator: Adobe Illustrator 18.1.1, SVG Export Plug-In . SVG Version: 6.00 Build 0)  -->
<svg version="1.1" baseProfile="tiny" id="Layer_1" xmlns="http://www.w3.org/2000/svg" xmlns:xlink="http://www.w3.org/1999/xlink"
	 x="0px" y="0px" width="32px" height="32px" viewBox="0 0 32 32" xml:space="preserve">
<g>
	<polygon fill="#548DCA" points="15.1,14.1 10.9,18.5 13.4,18.8 	"/>
	<polygon fill="#437CBE" points="15.1,14.1 16.9,19.3 13.4,18.8 	"/>
	<polygon fill="#4983C3" points="15.1,14.1 16.9,13 16.9,19.3 	"/>
	<polygon fill="#437CBE" points="16.9,13 20.2,15.9 16.9,19.3 	"/>
	<polygon fill="#568FCB" points="16.9,13 19.9,10.6 20.2,15.9 	"/>
	<polygon fill="#9BC6EB" points="19.9,10.6 21.6,18 20.2,15.9 	"/>
	<polygon fill="#68A0D6" points="21.6,18 16.9,19.3 20.2,15.9 	"/>
	<polygon fill="#80B2E0" points="21.6,18 21.6,24.4 18.9,22.5 	"/>
	<polygon fill="#5A94CE" points="18.9,22.5 16.9,19.3 21.6,18 	"/>
	<polygon fill="#679FD6" points="16.9,19.3 12.6,27.5 15.9,26.3 	"/>
	<polygon fill="#558FCB" points="16.9,19.3 15.9,26.3 18.9,22.5 	"/>
	<polygon fill="#8FBDE6" points="18.9,22.5 17.2,27.5 15.9,26.3 	"/>
	<polygon fill="#7DB1E0" points="18.9,22.5 21.6,24.4 17.2,27.5 	"/>
	<polygon fill="#417CBE" points="16.9,19.3 13.4,18.8 10.2,25.7 	"/>
	<polygon fill="#3D73B8" points="16.9,19.3 10.2,25.7 12.6,27.5 	"/>
	<polygon fill="#558FCB" points="10.9,18.5 10.2,25.7 13.4,18.8 	"/>
	<polygon fill="#548DCA" points="10.9,18.5 8,26.6 10.2,25.7 	"/>
	<polygon fill="#427BBD" points="8,26.6 8.7,29.6 10.2,25.7 	"/>
	<polygon fill="#3D73B8" points="10.2,25.7 10.8,30.1 8.7,29.6 	"/>
	<polygon fill="#386FB4" points="10.2,25.7 12.6,27.5 10.8,30.1 	"/>
	<polygon fill="#427BBD" points="12.6,27.5 10.8,30.1 13.5,29.7 	"/>
	<polygon fill="#649ED5" points="12.6,27.5 15.9,26.3 13.5,29.7 	"/>
	<polygon fill="#87B8E4" points="15.9,26.3 15.1,29.3 13.5,29.7 	"/>
	<polygon fill="#93C1E8" points="15.9,26.3 17.2,27.5 15.1,29.3 	"/>
	<polygon fill="#5B95CF" points="8.7,29.6 10.7,32 10.8,30.1 	"/>
	<polygon fill="#568FCB" points="10.8,30.1 13.5,29.7 12.7,31.8 	"/>
	<polygon fill="#5E98D1" points="10.8,30.1 10.7,32 12.7,31.8 	"/>
	<polygon fill="#8DBCE6" points="12.7,31.8 15.1,29.3 13.5,29.7 	"/>
	<polygon fill="#90BDE6" points="12.7,31.8 14.1,31.6 15.1,29.3 	"/>
	<polygon fill="#A2CAEC" points="14.1,31.6 15.4,29.5 15.1,29.3 	"/>
	<polygon fill="#A1C9EC" points="17.2,27.5 15.4,29.5 15.1,29.3 	"/>
	<polygon fill="#84B6E2" points="10.7,32 9.5,31 8.7,29.6 	"/>
	<polygon fill="#82B3E1" points="8,26.6 8.3,28.7 8.7,29.6 	"/>
	<polygon fill="#558FCB" points="10.9,18.5 14.5,12.8 15.1,14.1 	"/>
	<polygon fill="#5B95CF" points="14.5,12.8 10.8,15 10.9,18.5 	"/>
	<polygon fill="#72A9DB" points="10.8,15 14.4,11.1 14.5,12.8 	"/>
	<polygon fill="#5894CF" points="19.9,10.6 16.1,11.4 16.9,13 	"/>
	<polygon fill="#7AAEDF" points="19.9,10.6 18.5,8.9 16.1,11.4 	"/>
	<polygon fill="#95C0E7" points="18.5,8.9 15.1,10.3 14.4,11.1 16.1,11.4 	"/>
	<polygon fill="#70A8DB" points="18.5,8.9 13.8,5.9 15.1,10.3 	"/>
	<polygon fill="#629DD5" points="18.5,8.9 23.9,6.2 19.9,10.6 	"/>
	<polygon fill="#99D1F3" points="23.9,6.2 21,10 19.9,10.6 	"/>
	<polygon fill="#599BD4" points="23.9,6.2 22.3,11.5 21,10 	"/>
	<polygon fill="#7FBBE7" points="22.3,11.5 19.9,10.6 21,10 	"/>
	<polygon fill="#78AEDE" points="19.9,10.6 22.3,11.5 21.6,18 	"/>
	<polygon fill="#92C1E8" points="22.3,11.5 23.3,16.7 21.6,18 	"/>
	<polygon fill="#A1CAED" points="23.3,16.7 23,21.5 21.6,18 	"/>
	<polygon fill="#90BDE6" points="21.6,18 23,21.5 21.6,24.4 	"/>
	<polygon fill="#9BC6EB" points="26.3,15.8 23.3,16.7 26.9,20.7 	"/>
	<polygon fill="#95C1E8" points="26.9,20.7 23,21.5 23.3,16.7 	"/>
	<polygon fill="#9CC6EA" points="26.9,20.7 26,24.9 23,21.5 	"/>
	<polygon fill="#93C1E8" points="23,21.5 26,24.9 23.7,27 	"/>
	<polygon fill="#93C1E8" points="23,21.5 23.7,27 21.7,24 	"/>
	<polygon fill="#91BFE7" points="21.4,24.5 23.7,27 21.7,24 21.6,24.4 	"/>
	<polygon fill="#98C4EA" points="23.3,16.7 26.3,15.8 22.5,12.4 	"/>
	<polygon fill="#AFD3F0" points="26.3,15.8 23.7,11.4 22.5,12.4 	"/>
	<polygon fill="#ABD0EF" points="23.7,11.4 22.4,11.2 22.3,11.5 22.5,12.4 	"/>
	<polygon fill="#4E5861" points="14.7,8.9 13.9,10.4 16.9,13 	"/>
	<polygon fill="#020304" points="7.6,0 9.1,3.5 11.3,7.4 14,10.4 12.5,6.8 9.7,3.4 	"/>
	<polygon fill="#3F4040" points="7.6,0 10.1,2.8 12.5,6.8 9.7,3.4 	"/>
	<polygon fill="#111E2E" points="12.6,10.3 15.1,14.2 14,10.4 13.8,10.4 	"/>
	<polygon fill="#1B2837" points="11.3,7.4 12.6,10.3 14,10.4 	"/>
	<polygon fill="#585D61" points="14.7,8.9 12.5,6.8 14,10.4 	"/>
	<polygon fill="#848687" points="10.1,2.8 12.3,6.1 14.7,8.9 12.5,6.8 	"/>
	<polyline fill="#183553" points="14,10.4 16.9,13 15.1,14.2 14,10.4 	"/>
	<polygon fill="#8B9DB0" points="15.1,9.7 16.1,11.3 16.1,11.3 16.9,13 15.9,11.2 	"/>
</g>
</svg>
